
<svg xmlns="http://www.w3.org/2000/svg" version="1.1" xmlns:xlink="http://www.w3.org/1999/xlink" preserveAspectRatio="none" x="0px" y="0px" width="260px" height="260px" viewBox="0 0 260 260">
<defs>
<g id="Layer1_0_FILL">
<path fill="#212C3D" stroke="none" d="
M 150.4 246.55
Q 148.95 246.85 148 247.05
L 144.85 247.7 130.6 249.4 117.55 249.55
Q 117.05 249.55 116 249.5
L 115.3 249.45
Q 114.8 249.4 114.55 249.4
L 103.35 248.3
Q 103.2 248.3 103 248.25
L 101.6 248.05
Q 101.05 247.9 100.85 247.9 100.35 247.8 100.1 247.8
L 99.45 247.65 99.3 247.65 95.65 246.95 95.5 246.95 84.15 243.95 84.05 243.95 76.8 241.3 67.75 237.3
Q 65.35 236.1 62.2 234.35
L 57.5 231.5
Q 57.4 231.45 57.4 231.5
L 61.75 235
Q 64.45 237.05 66.95 238.75
L 77.1 244.9 90.4 250.95 98.7 253.85 114.35 257.7 122.75 259
Q 122.9 259.05 123.15 259.1
L 131.25 259.85
Q 131.4 259.85 131.65 259.85
L 132.05 259.85
Q 133.05 259.95 133.55 259.95 133.85 259.95 134.35 260
L 146.65 259.95 155.25 259.2
Q 157.65 258.8 157.85 258.8
L 171.35 256.05
Q 174.95 255.1 177.9 254.15
L 183.4 252.25
Q 186.8 251.05 188.25 247.85 189.8 244.65 188.55 241.3 187.4 238 184.2 236.45 181 234.95 177.65 236.2 177.2 236.3 176.6 236.65
L 171.95 238.95
Q 169.45 240.15 166.5 241.35
L 157.9 244.5 150.4 246.55
M 69.75 166.05
L 70.5 167 70.5 167.1 71.1 167.8 71.15 168 71.25 168.1 71.3 168.1 72.15 169.25 72.2 169.3 73 170.3 73 170.35 80.3 178.25
Q 79.95 179.75 79.55 181.45
L 74.85 196.2
Q 74.65 196.9 74.1 198.35
L 69.3 210.95
Q 68.4 213.4 69.4 215.8 70.5 218.15 72.9 219.1 75.35 220.05 77.75 219 80.2 217.95 81.05 215.5 81.35 214.85 81.45 214.25
L 83.95 197.55 83.95 197.5 84 197.45 84 197.3 85.45 182.25
Q 85.5 179.7 85.5 177.6
L 85.5 177.1
Q 85.45 175.95 84.5 175.35
L 82.05 173.9 74.75 168.65 74.75 168.6 74.7 168.6 73.75 167.8 73.7 167.75 72.65 166.85 72.6 166.85 71.7 166.05 71.7 166 71.65 166 70.75 165.15
Q 68.4 163.05 66.6 161.1
L 66.55 161.1 66.55 161.2
Q 68.15 163.8 69.75 166.05
M 25.1 61.75
Q 23.9 63.4 23.35 64.15
L 16.95 74.05
Q 15.35 76.9 14.6 78.25 13.3 80.85 12.35 82.9
L 10.2 87.85
Q 9.05 90.55 8.1 93.15 7.3 95.4 6.25 98.75 5.3 101.8 4.6 104.55 3.75 107.95 3.15 110.55
L 2.65 113.2 2.55 113.35 2 116.65
Q 1.45 119.7 1.05 122.8
L 0.05 134.55 0 141.15
Q 0.05 143.95 0.2 147
L 2.1 162.85
Q 2.85 166.9 4.05 171.4
L 6.2 178.7 6.2 178.8 6.25 178.85 7.9 183.6
Q 9.1 186.9 12.3 188.35 15.55 189.8 18.85 188.65 22.2 187.4 23.65 184.2 25.15 181 23.9 177.6 23.75 177.2 23.45 176.6
L 21.55 172.85
Q 21.55 172.8 21.5 172.8
L 18.7 166.55
Q 17.35 163.3 16.05 159.35
L 13.9 151.8 13.85 151.7 12.5 145.5
Q 11.95 142.4 11.65 140.35
L 10.95 134.1 10.45 123.45
Q 10.45 120 10.55 117.55
L 10.5 117.5 10.8 111.7
Q 11.1 109 11.45 105.9 11.9 102.5 12.25 100.15 12.75 97.35 13.35 94.65 14.1 91.55 14.6 89.4
L 16.1 84.3
Q 17.1 81.35 17.7 79.65 18.7 77.05 19.4 75.25
L 25.75 62.25
Q 26.9 60.2 27.8 58.75
L 28.55 57.5
Q 28.65 57.4 28.55 57.4
L 28.55 57.45 25.1 61.75
M 196.45 73.15
Q 196.2 73.1 196 73.25 195.85 73.45 195.8 73.65 195.75 73.9 195.9 74.1
L 196.9 75.8 197 75.9 201.05 84.4 203.15 91 204.3 96.95 204.75 105.3 204.7 105.3 204.7 105.45 204.65 105.6 204.65 105.65 204.6 106 204.2 106.75
Q 203.95 107.1 203.65 107.45 203.45 107.65 203.4 107.8
L 203.4 107.85
Q 202.75 109.45 202.45 110.6 202.05 112.25 201.9 113.4 201.7 114.8 201.65 116.35 201.65 117.9 201.9 119.3 202.1 120.65 202.55 122.2 203 123.55 203.65 124.9 204.2 126.05 205.15 127.45
L 206.25 129 206.35 129.05 208.65 131.9
Q 210.1 133.75 210.4 134.05
L 219.4 146.45 219.5 146.45 207.1 152.4
Q 206.7 152.55 206.5 152.95 206.4 153.25 206.4 153.65
L 208.55 167.95 205.5 171.75
Q 205.15 172.15 205.25 172.65
L 205.25 172.75 206.35 178.95 202.3 185.15
Q 202.05 185.55 202.05 185.95 202.3 187.8 202.3 190 202.3 192 202.2 194.1 201.9 198.15 200.95 202.25
L 200.95 202.4 200.85 202.65 200.85 202.7 200.8 202.8 200.7 203.1
Q 200.6 203.45 200.4 203.85 200.1 204.3 199.9 204.5
L 199.9 204.55 199.8 204.65 199.75 204.65 199.6 204.75 199.5 204.9 199.4 204.95
Q 199.1 205.2 198.7 205.3
L 197.95 205.5
Q 197.65 205.55 197.05 205.55
L 196.8 205.55 193.8 205.25 193.6 205.25 177.8 202.9 166.45 200.2 159.7 198.15 147.3 193.45 147.25 193.4 147.15 193.4 145.9 192.8
Q 145 192.4 144.1 191.85 143.25 191.45 142.3 190.8 141.3 190.2 140.65 189.7 139.05 188.5 137.6 187 136.15 185.55 135 184 133.85 182.35 132.9 180.55 132 178.75 131.4 176.8 130.75 174.95 130.4 172.85 130 170.9 129.85 168.75
L 127.75 143.65
Q 127.75 143.4 127.55 143.2 127.3 143.05 127.1 143.1 126.55 143.15 126.5 143.75
L 126.2 171.3
Q 126.25 172.8 126.35 173.5 126.65 176.05 127.2 178.15
L 127.85 180.35
Q 128.25 181.55 128.75 182.65 129.2 183.65 129.75 184.75 130.65 186.3 130.95 186.85
L 132.4 188.8
Q 133.15 189.85 133.95 190.7
L 135.6 192.45
Q 136.55 193.3 137.4 194 138.3 194.75 139.35 195.45 140.25 196.1 141.3 196.8 142.25 197.4 143.35 197.95
L 143.65 198.15 144.85 198.7 144.9 198.75 151.4 201.65 163.8 206.35 176.15 209.7 185.75 211.6 196.9 212.95 197 212.95
Q 198.15 212.95 198.95 212.8 200.1 212.7 201.2 212.3 202.45 211.85 203.5 211.2
L 204.3 210.6 204.4 210.45 204.55 210.4 205.55 209.35 206.75 207.7 206.75 207.65 206.9 207.5
Q 207.35 206.65 207.8 205.55
L 207.85 205.35 208.15 204.45 208.15 204.15 208.2 204.05 209.7 194.7
Q 209.9 192.05 209.9 189.9 209.8 188.7 209.8 187.5
L 212.9 182.65
Q 214.25 180.6 213.8 178.15
L 213.1 174.1 214.75 172
Q 215.55 171 215.8 169.75 216.1 168.55 215.95 167.35
L 214.2 156.8 223.6 151.9
Q 225.1 151.1 225.9 149.65 226.65 148.2 226.5 146.5 226.5 145.9 226.3 145.2
L 226.2 144.9 225.4 143.2 225.3 143.1 225.25 143 220.65 136.95 210.8 125.35 210.75 125.35 210.1 124.5 210.05 124.45 209.9 124.25
Q 209.15 123.3 208.65 122.4
L 208.6 122.25 208.55 122.2 208.1 121.3 208.05 121.3 208.05 121.25 207.7 120.5
Q 207.3 119.4 207.1 118.45 206.8 117.35 206.75 116.35
L 206.7 114.8 206.75 114.65 206.75 114.1
Q 206.8 112.85 207.05 111.8 207.25 110.95 207.55 109.85 207.8 109.55 207.95 109.2
L 208.35 108.5 208.45 108.25
Q 208.75 107.65 208.8 107.25
L 209 105.9 209 105.8 209.1 105.6 209.1 105 208.25 97.95 206.9 92.1
Q 206.4 90.4 206.1 89.8
L 203.4 83.35 203.35 83.2
Q 202.8 82.2 202.25 81.15
L 196.9 73.45 196.9 73.4
Q 196.7 73.15 196.45 73.15
M 164.35 44.55
Q 166.35 45.5 168 46.4 171.55 48.35 174.85 50.6 174.9 50.7 174.95 50.6
L 174.95 50.55
Q 171.65 47.95 168.25 45.85 166.5 44.7 164.75 43.75
L 153.55 38.7
Q 149.4 37.3 145.6 36.4 141.55 35.45 137.45 34.95
L 129.2 34.3
Q 127.85 34.3 125.05 34.3
L 112.6 35.35
Q 108.4 36.05 104.45 37.2
L 95.85 40.1 95.75 40.2 88.8 43.5
Q 85 45.6 81.6 47.95 78.25 50.2 74.85 53.1
L 68.65 58.85
Q 65.65 61.85 63 65.2 60.5 68.35 58.2 71.75
L 58.15 71.75 58.15 71.85 53.45 80.1 49.35 90.3 49.35 90.4 49.3 90.4 49 91.45 48.95 91.45 48.65 92.65 48.65 92.7 47.4 97.5 47.4 97.55 46.55 101.55
Q 46.3 102.9 46.15 104.2
L 45.95 105.7 45.95 105.9 45.3 114.2 45.3 120.45
Q 45.35 121.8 45.45 123.15
L 45.75 126.4 45.75 126.45 46.9 134.05
Q 47.4 136.55 49.5 138 51.65 139.5 54.25 139 56.8 138.55 58.25 136.4 59.7 134.2 59.2 131.65
L 59.15 131.3 59.15 131.25 58 126.35 58 126.25 57.7 124.8 57.65 124.3
Q 57.4 123.2 57.3 122.05 57.15 120.85 57.05 119.65 56.9 118.5 56.8 117.3 56.7 116.15 56.7 114.9
L 56.7 114.2 56.65 114.05 56.6 112.55
Q 56.6 111.35 56.6 110.15
L 56.75 106 56.8 105.8 56.8 105.7 57.05 103.05
Q 57.05 102.95 57.3 100.65
L 57.5 99.5 57.5 99.3 58.3 95.2 58.3 95.15 58.55 94.15 58.55 94.05 58.75 93.55 58.75 93.5
Q 58.75 93.35 58.8 93.2
L 58.8 93.1 61.7 84.15 65.45 76.4
Q 67.2 73.25 69.45 70.1 71.4 67.25 74.2 63.95
L 76.3 61.55 76.4 61.55 78.85 58.95 79 58.9 79.55 58.3
Q 82.7 55.3 85.45 53.1 88.35 50.8 91.8 48.65
L 96.65 45.85 105.9 41.85
Q 109.5 40.6 113.45 39.65
L 124.25 37.9 124.4 37.9 125.25 37.8
Q 127.2 37.7 129.2 37.6
L 137.25 37.7
Q 141.2 38 145.2 38.6 149.2 39.25 153.05 40.35
L 155.9 41.2 156.05 41.2 156.15 41.3 156.4 41.35 164.35 44.55
M 202.8 28.6
L 202.8 28.55 198.45 25.05
Q 195.75 23.05 193.25 21.3
L 188.05 18.05
Q 187.85 17.9 187.1 17.5
L 174.9 11.25 168.4 8.65 168.25 8.5 156.2 4.7 143.75 2 143.65 2 141.2 1.6
Q 141 1.6 140.5 1.5
L 137.4 1.1
Q 137.25 1 137 1
L 130.8 0.4 130.65 0.4 128.9 0.25
Q 128.8 0.25 128.5 0.25
L 126.6 0.15
Q 126.3 0.1 125.85 0.1
L 125.1 0.05
Q 124.8 0.05 124.3 0.05
L 123.95 0 104.9 0.9
Q 102.7 1.2 102.3 1.3
L 88.8 4.05
Q 85.6 4.8 82.25 5.95
L 76.7 7.9
Q 73.4 9.1 71.85 12.3 70.4 15.45 71.6 18.85 72.8 22.1 76 23.7 79.2 25.15 82.5 23.95 83.1 23.7 83.55 23.5
L 85.25 22.65 85.35 22.55 88.25 21.15
Q 91.4 19.65 93.65 18.75
L 107.35 14.1 118.6 11.85 130.3 10.6 130.5 10.55 142.65 10.55 142.7 10.5 144.55 10.55
Q 144.8 10.6 144.9 10.6
L 158.65 12.05
Q 159.05 12.15 159.35 12.2 159.75 12.25 160 12.25 160.5 12.35 160.7 12.35
L 173.4 15.35
Q 174.25 15.6 175.9 16.1
L 178.25 16.85
Q 180.3 17.55 180.6 17.7
L 192.35 22.75
Q 194.45 23.8 197.95 25.75
L 202.7 28.6
Q 202.8 28.65 202.8 28.6
M 258.3 98.55
L 256.15 88.8
Q 255.35 85.6 254.25 82.2
L 252.3 76.65
Q 251.1 73.4 247.9 71.9 244.7 70.4 241.35 71.55 238.05 72.8 236.55 76 235.05 79.2 236.3 82.5 236.45 83.05 236.7 83.55
L 239.05 88.25
Q 240.55 91.35 241.45 93.65
L 243.35 98.7 243.45 98.8 243.45 98.95 247.35 112.8
Q 247.35 113 247.45 113.4
L 248.75 121.25 249.6 130.55 249.7 142.55 248.7 154.9 247.05 164.75 244.85 173.45
Q 244.75 173.75 244.05 175.95
L 239.9 187.1 237.45 192.45
Q 236.05 195.25 234.45 198.05
L 231.55 202.8
Q 231.55 202.85 231.6 202.85
L 231.65 202.85 235.1 198.5
Q 237.15 195.8 238.85 193.3
L 244.15 184.65 249 174.95 252.45 166.1 255.5 156.05 257.8 145.85 259.9 129.7 260 113.25 258.3 98.55 Z"/>
</g>
</defs>

<g transform="matrix( 1, 0, 0, 1, 0,0) ">
<use xlink:href="#Layer1_0_FILL"/>
</g>
</svg>
