
<svg xmlns="http://www.w3.org/2000/svg" version="1.1" xmlns:xlink="http://www.w3.org/1999/xlink" preserveAspectRatio="none" x="0px" y="0px" width="31px" height="34px" viewBox="0 0 31 34">
<defs>
<g id="Layer0_0_FILL">
<path fill="#666666" stroke="none" d="
M 28.2 8.25
Q 27.2 7 27.2 5.45 24.4 4.5 21.55 2.85 18.7 1.15 15.85 1
L 15.8 1
Q 12.95 1.15 10.15 2.85 7.3 4.5 4.55 5.45 4.55 7 3.5 8.25 2.45 9.5 0.95 9.15 1.15 14.2 2.6 19.25 4.4 24.95 8.2 28.1 11.95 31.65 15.1 32.9 15.45 32.95 15.85 33 16.25 32.95 16.6 32.9 19.75 31.65 23.5 28.1 27.35 24.95 29.15 19.25 30.6 14.2 30.8 9.15 29.25 9.5 28.2 8.25
M 26.8 9.35
Q 27.75 10.45 29.05 10.1 28.9 14.55 27.6 19 26.05 24 22.65 26.8 19.35 29.95 16.55 31.1 16.25 31.15 15.85 31.2 15.55 31.15 15.25 31.1 12.5 29.95 9.2 26.8 5.75 24 4.2 19 2.95 14.55 2.75 10.1 4.05 10.45 5 9.35 5.9 8.2 5.9 6.85 8.4 6.05 10.85 4.55 13.35 3.05 15.85 2.95
L 15.9 2.95
Q 18.4 3.05 20.95 4.55 23.4 6.05 25.9 6.85 25.9 8.2 26.8 9.35 Z"/>

<path fill="#31FC31" stroke="none" d="
M 15.85 2.95
Q 13.35 3.05 10.85 4.55 8.4 6.05 5.9 6.85 5.9 8.2 5 9.35 4.05 10.45 2.75 10.1 2.95 14.55 4.2 19 5.75 24 9.2 26.8 12.5 29.95 15.25 31.1 15.55 31.15 15.85 31.2
L 15.85 26.15 15.8 26.15
Q 15.35 26.05 14.75 25.5
L 8.4 19.15
Q 7.7 18.35 7.8 17.85 7.4 17.15 7.85 16.75
L 9.65 14.85
Q 10.3 14.25 11.35 15.3
L 15.6 19.6 15.8 19.25 15.85 19.2 15.85 2.95 Z"/>

<path fill="#333333" stroke="none" d="
M 27.4 12.05
L 27.35 11.95
Q 27.15 12.45 26.65 13.05
L 17.25 24.4
Q 16.45 25.35 15.85 25.35 15.715625 25.4037109375 15.55 25.35 15.134765625 25.334765625 14.55 24.75
L 8.25 18.4
Q 7.95 18.1 7.8 17.85 7.7 18.35 8.4 19.15
L 14.75 25.5
Q 15.35 26.05 15.8 26.15
L 15.85 26.15
Q 16.012890625 26.1435546875 16.1 26.1 16.6 26.1 17.5 25.15
L 26.8 13.8
Q 27.95 12.45 27.4 12.05 Z"/>

<path fill="#FFFFFF" stroke="none" d="
M 24.95 9.4
Q 24.45 8.9 23.25 10.3
L 15.85 19.2 15.8 19.25 15.6 19.6 11.35 15.3
Q 10.3 14.25 9.65 14.85
L 7.85 16.75
Q 7.4 17.15 7.8 17.85 7.95 18.1 8.25 18.4
L 14.55 24.75
Q 15.134765625 25.334765625 15.55 25.35 15.715625 25.4037109375 15.85 25.35 16.45 25.35 17.25 24.4
L 26.65 13.05
Q 27.15 12.45 27.35 11.95 27.5 11.5 27.2 11.3
L 24.95 9.4
M 19.15 25.4
Q 18.45 25.45 18 25.95 17.55 26.5 17.6 27.2 17.7 27.9 18.2 28.35 18.75 28.8 19.4 28.75 20.15 28.65 20.6 28.15 21.05 27.6 20.95 26.9 20.9 26.2 20.4 25.75 19.85 25.3 19.15 25.4
M 19.2 25.7
Q 19.75 25.65 20.2 26 20.65 26.35 20.65 26.95 20.7 27.5 20.35 27.95 20 28.35 19.4 28.45 18.85 28.45 18.4 28.1 17.95 27.75 17.95 27.2 17.9 26.6 18.25 26.15 18.6 25.7 19.2 25.7
M 21.4 22.95
L 20.85 23.55 23.2 24.45 23.7 23.9 22.35 21.8 21.95 22.3 22.85 23.6
Q 22.75 23.55 22.65 23.5
L 21.4 22.95
M 21.9 24.65
L 20.75 23.7 20.25 24.2 21.45 25.2
Q 21.55 25.3 21.55 25.4 21.6 25.5 21.5 25.65 21.45 25.7 21.25 25.8
L 21.7 26.15
Q 21.8 26.1 21.95 26 22 25.9 22.1 25.85 22.3 25.6 22.3 25.45 22.35 25.2 22.25 25.05 22.15 24.85 21.9 24.65
M 24.2 19.65
L 23.55 20.4 24.3 21.5 23.15 20.9 22.5 21.65 24.3 23.2 24.65 22.75 23.35 21.7 24.95 22.4 25.25 22.05 24.25 20.65 25.55 21.7 26 21.2 24.2 19.65 Z"/>

<path fill="#03B903" stroke="none" d="
M 23.25 10.3
Q 24.45 8.9 24.95 9.4
L 27.2 11.3
Q 27.5 11.5 27.35 11.95
L 27.4 12.05
Q 27.95 12.45 26.8 13.8
L 17.5 25.15
Q 16.6 26.1 16.1 26.1 16.012890625 26.1435546875 15.85 26.15
L 15.85 31.2
Q 16.25 31.15 16.55 31.1 19.35 29.95 22.65 26.8 26.05 24 27.6 19 28.9 14.55 29.05 10.1 27.75 10.45 26.8 9.35 25.9 8.2 25.9 6.85 23.4 6.05 20.95 4.55 18.4 3.05 15.9 2.95
L 15.85 2.95 15.85 19.2 23.25 10.3
M 23.55 20.4
L 24.2 19.65 26 21.2 25.55 21.7 24.25 20.65 25.25 22.05 24.95 22.4 23.35 21.7 24.65 22.75 24.3 23.2 22.5 21.65 23.15 20.9 24.3 21.5 23.55 20.4
M 20.75 23.7
L 21.9 24.65
Q 22.15 24.85 22.25 25.05 22.35 25.2 22.3 25.45 22.3 25.6 22.1 25.85 22 25.9 21.95 26 21.8 26.1 21.7 26.15
L 21.25 25.8
Q 21.45 25.7 21.5 25.65 21.6 25.5 21.55 25.4 21.55 25.3 21.45 25.2
L 20.25 24.2 20.75 23.7
M 20.85 23.55
L 21.4 22.95 22.65 23.5
Q 22.75 23.55 22.85 23.6
L 21.95 22.3 22.35 21.8 23.7 23.9 23.2 24.45 20.85 23.55
M 18 25.95
Q 18.45 25.45 19.15 25.4 19.85 25.3 20.4 25.75 20.9 26.2 20.95 26.9 21.05 27.6 20.6 28.15 20.15 28.65 19.4 28.75 18.75 28.8 18.2 28.35 17.7 27.9 17.6 27.2 17.55 26.5 18 25.95 Z"/>

<path fill="#999999" stroke="none" d="
M 18.9 27.55
Q 18.7 27.35 18.65 27.15 18.65 26.85 18.8 26.65 18.95 26.5 19.1 26.45
L 19.1 26.15
Q 18.8 26.2 18.6 26.45 18.35 26.7 18.4 27.15 18.4 27.5 18.7 27.75 19 27.95 19.4 27.95 19.75 27.95 20 27.65 20.2 27.4 20.25 27.15
L 19.95 27.15
Q 19.9 27.35 19.8 27.5 19.6 27.7 19.35 27.75 19.1 27.7 18.9 27.55 Z"/>
</g>
</defs>

<g transform="matrix( 1, 0, 0, 1, 0,0) ">
<use xlink:href="#Layer0_0_FILL"/>
</g>
</svg>
