
<svg xmlns="http://www.w3.org/2000/svg" version="1.1" xmlns:xlink="http://www.w3.org/1999/xlink" preserveAspectRatio="none" x="0px" y="0px" width="34px" height="34px" viewBox="0 0 34 34">
<defs>
<g id="Layer0_0_FILL">
<path fill="#FFFFFF" stroke="none" d="
M 33 17
Q 33 10.4 28.4 5.7 23.7 1 17 1 10.4 1 5.7 5.7 1 10.4 1 17 1 23.6 5.7 28.3 10.4 33 17 33 23.7 33 28.4 28.3 33 23.6 33 17
M 26.95 7.1
Q 31 11.2 31 17 31 22.75 26.95 26.9 22.85 31 17 31 11.2 31 7.1 26.9 3 22.75 3 17 3 11.2 7.1 7.1 11.2 3 17 3 22.85 3 26.95 7.1
M 29 17
Q 29 12.05 25.55 8.55 22.05 5 17 5 12.05 5 8.55 8.55 5 12.05 5 17 5 21.95 8.55 25.5 12.05 29 17 29 22.05 29 25.55 25.5 29 21.95 29 17
M 18.3 8.45
Q 18.85 8.95 18.85 9.7 18.85 11.4 17 11.4 15.1 11.4 15.1 9.7 15.1 8.95 15.65 8.45 16.2 8 17 8 17.75 8 18.3 8.45
M 18.5 13.15
Q 18.75 13.15 18.75 13.4 18.75 14.45 18.65 16.6 18.5 18.7 18.5 19.75 18.5 20.75 18.55 22.75 18.6 24.75 18.6 25.75 18.6 26 18.35 26
L 15.65 26
Q 15.4 26 15.4 25.45 15.4 24.5 15.45 22.65 15.45 20.75 15.45 19.75 15.45 18.7 15.3 16.6 15.15 14.45 15.15 13.4 15.15 13.15 15.45 13.15 15.7 13.15 16.2 13.2 16.7 13.3 17 13.3 17.25 13.3 17.75 13.2 18.25 13.15 18.5 13.15 Z"/>

<path fill="#0099FF" stroke="none" d="
M 31 17
Q 31 11.2 26.95 7.1 22.85 3 17 3 11.2 3 7.1 7.1 3 11.2 3 17 3 22.75 7.1 26.9 11.2 31 17 31 22.85 31 26.95 26.9 31 22.75 31 17
M 25.55 8.55
Q 29 12.05 29 17 29 21.95 25.55 25.5 22.05 29 17 29 12.05 29 8.55 25.5 5 21.95 5 17 5 12.05 8.55 8.55 12.05 5 17 5 22.05 5 25.55 8.55
M 18.75 13.4
Q 18.75 13.15 18.5 13.15 18.25 13.15 17.75 13.2 17.25 13.3 17 13.3 16.7 13.3 16.2 13.2 15.7 13.15 15.45 13.15 15.15 13.15 15.15 13.4 15.15 14.45 15.3 16.6 15.45 18.7 15.45 19.75 15.45 20.75 15.45 22.65 15.4 24.5 15.4 25.45 15.4 26 15.65 26
L 18.35 26
Q 18.6 26 18.6 25.75 18.6 24.75 18.55 22.75 18.5 20.75 18.5 19.75 18.5 18.7 18.65 16.6 18.75 14.45 18.75 13.4
M 18.85 9.7
Q 18.85 8.95 18.3 8.45 17.75 8 17 8 16.2 8 15.65 8.45 15.1 8.95 15.1 9.7 15.1 11.4 17 11.4 18.85 11.4 18.85 9.7 Z"/>
</g>
</defs>

<g transform="matrix( 1, 0, 0, 1, 0,0) ">
<use xlink:href="#Layer0_0_FILL"/>
</g>
</svg>
