
<svg xmlns="http://www.w3.org/2000/svg" version="1.1" xmlns:xlink="http://www.w3.org/1999/xlink" preserveAspectRatio="none" x="0px" y="0px" width="34px" height="34px" viewBox="0 0 34 34">
<defs>
<g id="Layer0_0_FILL">
<path fill="#333333" stroke="none" d="
M 33 17
Q 33 10.4 28.4 5.7 23.7 1 17 1 10.4 1 5.7 5.7 1 10.4 1 17 1 23.6 5.7 28.3 10.4 33 17 33 23.7 33 28.4 28.3 33 23.6 33 17
M 26.95 7.1
Q 31 11.2 31 17 31 22.75 26.95 26.9 22.85 31 17 31 11.2 31 7.1 26.9 3 22.75 3 17 3 11.2 7.1 7.1 11.2 3 17 3 22.85 3 26.95 7.1 Z"/>

<path fill="#FFFFFF" stroke="none" d="
M 31 17
Q 31 11.2 26.95 7.1 22.85 3 17 3 11.2 3 7.1 7.1 3 11.2 3 17 3 22.75 7.1 26.9 11.2 31 17 31 22.85 31 26.95 26.9 31 22.75 31 17
M 25.55 8.55
Q 29 12.05 29 17 29 21.95 25.55 25.5 22.05 29 17 29 12.05 29 8.55 25.5 5 21.95 5 17 5 12.05 8.55 8.55 12.05 5 17 5 22.05 5 25.55 8.55
M 24.3 12.35
Q 24.75 11.85 24.75 11 24.85 10.3 24.3 9.75 23.8 9.25 22.95 9.15 22.15 9.25 21.65 9.75
L 17.1 14.4 12.45 9.75
Q 11.9 9.15 11.1 9.15 10.3 9.15 9.8 9.75 9.25 10.2 9.25 11.1 9.25 11.8 9.75 12.35
L 14.4 17 9.8 21.65
Q 9.25 22.15 9.25 22.95 9.25 23.8 9.75 24.3 10.3 24.85 11.1 24.75 11.85 24.75 12.45 24.3
L 17 19.65 21.6 24.3
Q 22.15 24.75 22.95 24.85 23.7 24.75 24.3 24.3 24.75 23.7 24.75 22.95 24.85 22.15 24.3 21.65
L 19.7 17 24.3 12.35 Z"/>

<path fill="#FF0000" stroke="none" d="
M 29 17
Q 29 12.05 25.55 8.55 22.05 5 17 5 12.05 5 8.55 8.55 5 12.05 5 17 5 21.95 8.55 25.5 12.05 29 17 29 22.05 29 25.55 25.5 29 21.95 29 17
M 24.75 11
Q 24.75 11.85 24.3 12.35
L 19.7 17 24.3 21.65
Q 24.85 22.15 24.75 22.95 24.75 23.7 24.3 24.3 23.7 24.75 22.95 24.85 22.15 24.75 21.6 24.3
L 17 19.65 12.45 24.3
Q 11.85 24.75 11.1 24.75 10.3 24.85 9.75 24.3 9.25 23.8 9.25 22.95 9.25 22.15 9.8 21.65
L 14.4 17 9.75 12.35
Q 9.25 11.8 9.25 11.1 9.25 10.2 9.8 9.75 10.3 9.15 11.1 9.15 11.9 9.15 12.45 9.75
L 17.1 14.4 21.65 9.75
Q 22.15 9.25 22.95 9.15 23.8 9.25 24.3 9.75 24.85 10.3 24.75 11 Z"/>
</g>
</defs>

<g transform="matrix( 1, 0, 0, 1, 0,0) ">
<use xlink:href="#Layer0_0_FILL"/>
</g>
</svg>
