
<svg xmlns="http://www.w3.org/2000/svg" version="1.1" xmlns:xlink="http://www.w3.org/1999/xlink" preserveAspectRatio="none" x="0px" y="0px" width="22px" height="22px" viewBox="0 0 22 22">
<defs>
<g id="Layer0_0_FILL">
<path fill="#00FF00" stroke="none" d="
M 21 5
Q 21.5 4.2 21.75 3.5
L 21.75 3.4
Q 21.95 2.95 21.65 2.65
L 19.15 0.2
Q 18.65 -0.45 17.25 1.35
L 8.75 13.65 4.05 7.9
Q 2.85 6.6 2.25 7.4
L 0.2 9.85
Q -0.15 10.45 0.1 11.3
L 0.1 11.4 7.6 20.5
Q 8.45 21.3 8.7 21.3
L 9.25 21.25 9.55 21.15
Q 10.05 20.8 10.65 19.95
L 21 5 Z"/>

<path fill="#303030" stroke="none" d="
M 21.8 3.45
L 21.75 3.4 21.75 3.5
Q 21.5 4.2 21 5
L 10.65 19.95
Q 10.05 20.8 9.55 21.15
L 9.25 21.25 8.7 21.3
Q 8.45 21.3 7.6 20.5
L 0.1 11.4
Q 0.124609375 11.761328125 0.3 12.2
L 7.8 21.3
Q 8.5 22.05 8.85 22.05
L 9.45 22.05 9.65 21.95
Q 10.1 21.65 10.75 20.75
L 21.2 5.8
Q 21.75 4.9 21.9 4.3 22.1 3.75 21.8 3.45 Z"/>
</g>
</defs>

<g transform="matrix( 1, 0, 0, 1, 0,0) ">
<use xlink:href="#Layer0_0_FILL"/>
</g>
</svg>
