
<svg xmlns="http://www.w3.org/2000/svg" version="1.1" xmlns:xlink="http://www.w3.org/1999/xlink" preserveAspectRatio="none" x="0px" y="0px" width="22px" height="22px" viewBox="0 0 22 22">
<defs>
<g id="Layer0_0_FILL">
<path id="backColor" fill="#303030" stroke="none" d="
M 15.9 11.5
Q 15.9 9.8259765625 14.7 8.55 15.5 9.642578125 15.5 11 15.5 12.9 14.15 14.2 12.9 15.5 11 15.5 9.15 15.5 7.8 14.2 7.72734375 14.12734375 7.65 14.05 7.8931640625 14.3931640625 8.2 14.7 9.55 16 11.4 16 13.3 16 14.55 14.7 15.9 13.4 15.9 11.5 Z"/>

<path id="frontColor" fill="#00FF00" stroke="none" d="
M 14.15 7.85
Q 12.9 6.5 11 6.5 9.15 6.5 7.8 7.85 6.5 9.2 6.5 11 6.5 12.7939453125 7.65 14.05 7.72734375 14.12734375 7.8 14.2 9.15 15.5 11 15.5 12.9 15.5 14.15 14.2 15.5 12.9 15.5 11 15.5 9.642578125 14.7 8.55 14.48203125 8.18203125 14.15 7.85 Z"/>
</g>
</defs>

<g transform="matrix( 1, 0, 0, 1, 0,0) ">
<use xlink:href="#Layer0_0_FILL"/>
</g>
</svg>
