
<svg xmlns="http://www.w3.org/2000/svg" version="1.1" xmlns:xlink="http://www.w3.org/1999/xlink" preserveAspectRatio="none" x="0px" y="0px" width="34px" height="34px" viewBox="0 0 34 34">
<defs>
<g id="Layer0_0_FILL">
<path fill="#000000" stroke="none" d="
M 16.5 1.1
Q 16 1.25 15.8 1.75
L 1.15 31.05
Q 0.9 31.45 1.05 31.95 1.15 32.4 1.5 32.7 1.85 33 2.35 33
L 31.55 33
Q 32.1 33 32.45 32.7 32.8 32.4 32.95 31.95 33.05 31.45 32.8 31.05
L 18.25 1.75
Q 18 1.25 17.5 1.1 17 0.9 16.5 1.1
M 17 5.45
L 29.4 30.25 4.6 30.25 17 5.45
M 18.3 27.5
Q 18.9 26.9 18.9 26.15 18.9 25.35 18.3 24.75 17.75 24.15 16.9 24.15 16.2 24.15 15.55 24.75 15 25.35 15 26.15 15 26.9 15.55 27.5 16.2 28.1 16.9 28.1 17.75 28.1 18.3 27.5
M 15.65 14.5
Q 14.25 14.5 14.55 16.7
L 15.15 21.4
Q 15.3 22.3 16.1 22.3
L 17.6 22.3
Q 18.4 22.3 18.5 21.4
L 19.4 16.7
Q 19.8 14.5 18.4 14.5
L 15.65 14.5 Z"/>

<path fill="#FF9900" stroke="none" d="
M 29.4 30.25
L 17 5.45 4.6 30.25 29.4 30.25
M 14.55 16.7
Q 14.25 14.5 15.65 14.5
L 18.4 14.5
Q 19.8 14.5 19.4 16.7
L 18.5 21.4
Q 18.4 22.3 17.6 22.3
L 16.1 22.3
Q 15.3 22.3 15.15 21.4
L 14.55 16.7
M 18.9 26.15
Q 18.9 26.9 18.3 27.5 17.75 28.1 16.9 28.1 16.2 28.1 15.55 27.5 15 26.9 15 26.15 15 25.35 15.55 24.75 16.2 24.15 16.9 24.15 17.75 24.15 18.3 24.75 18.9 25.35 18.9 26.15 Z"/>
</g>
</defs>

<g transform="matrix( 1, 0, 0, 1, 0,0) ">
<use xlink:href="#Layer0_0_FILL"/>
</g>
</svg>
