
<svg xmlns="http://www.w3.org/2000/svg" version="1.1" xmlns:xlink="http://www.w3.org/1999/xlink" preserveAspectRatio="none" x="0px" y="0px" width="34px" height="34px" viewBox="0 0 34 34">
<defs>
<linearGradient id="Gradient_1" gradientUnits="userSpaceOnUse" x1="3" y1="17" x2="31" y2="17" spreadMethod="pad">
<stop  offset="0%" stop-color="#A6A602"/>

<stop  offset="100%" stop-color="#FFFF62"/>
</linearGradient>

<linearGradient id="Gradient_2" gradientUnits="userSpaceOnUse" x1="24.3875" y1="26.175" x2="15.412499999999998" y2="15.025000000000002" spreadMethod="pad">
<stop  offset="0%" stop-color="#A6A602"/>

<stop  offset="100%" stop-color="#FFFF62"/>
</linearGradient>

<g id="Layer0_0_FILL">
<path fill="#333333" stroke="none" d="
M 33 17
Q 33 10.4 28.4 5.7 23.7 1 17 1 10.4 1 5.7 5.7 1 10.4 1 17 1 23.6 5.7 28.3 10.4 33 17 33 23.7 33 28.4 28.3 33 23.6 33 17
M 26.95 7.1
Q 31 11.2 31 17 31 22.75 26.95 26.9 22.85 31 17 31 11.2 31 7.1 26.9 3 22.75 3 17 3 11.2 7.1 7.1 11.2 3 17 3 22.85 3 26.95 7.1 Z"/>

<path fill="url(#Gradient_1)" stroke="none" d="
M 31 17
Q 31 11.2 26.95 7.1 22.85 3 17 3 11.2 3 7.1 7.1 3 11.2 3 17 3 22.75 7.1 26.9 11.2 31 17 31 22.85 31 26.95 26.9 31 22.75 31 17
M 25.55 8.55
Q 29 12.05 29 17 29 21.95 25.55 25.5 22.05 29 17 29 12.05 29 8.55 25.5 5 21.95 5 17 5 12.05 8.55 8.55 12.05 5 17 5 22.05 5 25.55 8.55 Z"/>

<path fill="url(#Gradient_2)" stroke="none" d="
M 29 17
Q 29 12.05 25.55 8.55 22.05 5 17 5 12.05 5 8.55 8.55 5 12.05 5 17 5 21.95 8.55 25.5 12.05 29 17 29 22.05 29 25.55 25.5 29 21.95 29 17 Z"/>
</g>

<g id="Layer0_0_MEMBER_0_FILL">
<path fill="#333333" stroke="none" d="
M 14.2 22.45
Q 13.75 23.05 13.75 23.8 13.75 24.55 14.2 25.1 14.7 25.7 15.45 25.7 16.2 25.7 16.65 25.1 17.2 24.55 17.2 23.8 17.2 23.05 16.65 22.45 16.2 21.95 15.45 21.95 14.7 21.95 14.2 22.45
M 19.6 7.75
Q 18.15 6.35 15.85 6.35 13.55 6.35 11.4 7.8 11 8.15 11 8.25 11 10.9 11.4 10.9
L 12.6 10.25
Q 13.8 9.5 14.85 9.5 16.05 9.5 16.8 10.3 17.45 11.05 17.45 12.3 17.45 13.6 16.45 14.95 15.55 16.15 14.65 17.4 14.15 18.3 14.15 19.95 14.15 20.5 14.5 20.6 14.55 20.65 15.25 20.65 15.45 20.65 15.85 20.5 16.2 20.4 16.25 20.15 16.3 19.85 16.3 19.55 16.45 18.4 17.7 17.15 19.75 15.15 19.85 14.95 21 13.45 21 11.45 21 9.2 19.6 7.75 Z"/>
</g>
</defs>

<g transform="matrix( 1, 0, 0, 1, 0,0) ">
<use xlink:href="#Layer0_0_FILL"/>
</g>

<g transform="matrix( 1, 0, 0, 1, 1,1) ">
<use xlink:href="#Layer0_0_MEMBER_0_FILL"/>
</g>
</svg>
