
<svg xmlns="http://www.w3.org/2000/svg" version="1.1" xmlns:xlink="http://www.w3.org/1999/xlink" preserveAspectRatio="none" x="0px" y="0px" width="34px" height="34px" viewBox="0 0 34 34">
<defs>
<linearGradient id="Gradient_1" gradientUnits="userSpaceOnUse" x1="475.4875" y1="353.0625" x2="181.6125" y2="96.63749999999999" spreadMethod="pad">
<stop  offset="0.39215686274509803%" stop-color="#0358D8"/>

<stop  offset="100%" stop-color="#71C5FA"/>

<stop  offset="100%" stop-color="#FFFFFF"/>

<stop  offset="100%" stop-color="#FFFFFF"/>
</linearGradient>

<g id="Layer0_0_FILL">
<path fill="url(#Gradient_1)" stroke="none" d="
M 507 66
Q 507 43.2 490.9 27.1 474.8 11 452 11
L 124.05 11
Q 101.25 11 85.15 27.1 69.05 43.2 69.05 66
L 69.05 312.95
Q 69.05 335.75 85.15 351.85 101.25 367.95 124.05 367.95
L 208.55 367.95 208.55 439
Q 208.55 449 218.55 449
L 219.45 449 329.95 367.95 452 367.95
Q 474.8 367.95 490.9 351.85 507 335.75 507 312.95
L 507 66 Z"/>
</g>

<g id="Layer0_1_FILL">
<path fill="#000000" fill-opacity="0.4980392156862745" stroke="none" d="
M 506.95 65.75
Q 506.95 42.95 490.85 26.85 474.75 10.75 451.95 10.75
L 124 10.75
Q 101.2 10.75 85.1 26.85 69 42.95 69 65.75
L 69 312.7
Q 69 335.5 85.1 351.6 101.2 367.7 124 367.7
L 208.5 367.7 208.5 439.2
Q 208.5 449.2 218.5 449.2
L 219.4 449.2 330.5 367.7 451.95 367.7
Q 474.75 367.7 490.85 351.6 506.95 335.5 506.95 312.7
L 506.95 65.75
M 451.95 52.75
Q 466.95 52.75 466.95 67.75
L 466.95 310.75
Q 466.95 325.75 451.95 325.75
L 387.65 325.75 387.75 325.7 317.85 325.7 250 375.2 250 325.7 208.5 325.7 208.5 325.75 123.95 325.75
Q 108.95 325.75 108.95 310.75
L 108.95 67.75
Q 108.95 52.75 123.95 52.75
L 451.95 52.75 Z"/>

<path fill="#FFFFFF" stroke="none" d="
M 307.85 239.25
Q 299.8 231.2 288.45 231.2 277.05 231.2 269 239.25 260.95 247.35 260.95 258.7 260.95 270.05 269 278.15 277.05 286.2 288.45 286.2 299.8 286.2 307.85 278.15 315.95 270.05 315.95 258.7 315.95 247.35 307.85 239.25
M 308.75 93
L 269.75 93
Q 249.7 92.9 254 124.35
L 263.1 191.85
Q 264.75 203.95 275.9 203.95
L 297.65 203.95
Q 308.75 203.95 310.95 191.85
L 323.1 124.35
Q 328.75 92.9 308.75 93 Z"/>
</g>
</defs>

<g transform="matrix( 0.0730438232421875, 0, 0, 0.0729827880859375, -4.05,0.2) ">
<use xlink:href="#Layer0_0_FILL"/>
</g>

<g transform="matrix( 0.0730438232421875, 0, 0, 0.0729827880859375, -4.05,0.2) ">
<use xlink:href="#Layer0_1_FILL"/>
</g>
</svg>
