
<svg xmlns="http://www.w3.org/2000/svg" version="1.1" xmlns:xlink="http://www.w3.org/1999/xlink" preserveAspectRatio="none" x="0px" y="0px" width="34px" height="34px" viewBox="0 0 34 34">
<defs>
<g id="Layer0_0_FILL">
<path fill="#FF0000" stroke="none" d="
M 16.55 1.1
Q 16.05 1.25 15.85 1.75
L 1.2 31.05
Q 0.95 31.45 1.1 31.95 1.2 32.4 1.55 32.7 1.9 33 2.4 33
L 31.6 33
Q 32.15 33 32.5 32.7 32.85 32.4 33 31.95 33.1 31.45 32.85 31.05
L 18.3 1.75
Q 18.05 1.25 17.55 1.1 17.05 0.9 16.55 1.1
M 29.45 30.25
L 4.65 30.25 17.05 5.45 29.45 30.25
M 18.9 26.35
Q 18.9 25.55 18.3 24.95 17.75 24.35 16.9 24.35 16.2 24.35 15.55 24.95 15 25.55 15 26.35 15 27.1 15.55 27.7 16.2 28.3 16.9 28.3 17.75 28.3 18.3 27.7 18.9 27.1 18.9 26.35
M 15.65 14.7
Q 14.25 14.7 14.55 16.9
L 15.15 21.6
Q 15.3 22.5 16.1 22.5
L 17.6 22.5
Q 18.4 22.5 18.5 21.6
L 19.4 16.9
Q 19.8 14.7 18.4 14.7
L 15.65 14.7 Z"/>

<path fill="#FFFFFF" stroke="none" d="
M 4.65 30.25
L 29.45 30.25 17.05 5.45 4.65 30.25
M 14.55 16.9
Q 14.25 14.7 15.65 14.7
L 18.4 14.7
Q 19.8 14.7 19.4 16.9
L 18.5 21.6
Q 18.4 22.5 17.6 22.5
L 16.1 22.5
Q 15.3 22.5 15.15 21.6
L 14.55 16.9
M 18.3 24.95
Q 18.9 25.55 18.9 26.35 18.9 27.1 18.3 27.7 17.75 28.3 16.9 28.3 16.2 28.3 15.55 27.7 15 27.1 15 26.35 15 25.55 15.55 24.95 16.2 24.35 16.9 24.35 17.75 24.35 18.3 24.95 Z"/>
</g>
</defs>

<g transform="matrix( 1, 0, 0, 1, 0,0) ">
<use xlink:href="#Layer0_0_FILL"/>
</g>
</svg>
