
<svg xmlns="http://www.w3.org/2000/svg" version="1.1" xmlns:xlink="http://www.w3.org/1999/xlink" preserveAspectRatio="none" x="0px" y="0px" width="82px" height="34px" viewBox="0 0 82 34">
<defs>
<g id="Layer0_0_FILL">
<path fill="#B768B7" stroke="none" d="
M -2.65 -1.65
L -2.65 -1.4 -2.25 -1.4 -2.25 -0.1
Q -2.25 0.5 -1.7 0.5 -1.6 0.5 -1.5 0.5
L -1.5 0.15
Q -1.6 0.25 -1.65 0.25 -1.85 0.25 -1.9 0.15 -2 0.05 -2 -0.1
L -2 -1.4 -1.5 -1.4 -1.5 -1.65 -2 -1.65 -2 -2.25 -2.25 -2.15 -2.25 -1.65 -2.65 -1.65
M -4.4 -1.4
Q -4.6 -1 -4.6 -0.6 -4.6 -0.05 -4.4 0.25 -4.2 0.5 -3.8 0.5 -3.35 0.5 -3.05 0.3
L -3.05 0.05
Q -3.35 0.25 -3.65 0.25 -3.95 0.25 -4.15 0.05 -4.3 -0.1 -4.3 -0.5
L -2.85 -0.5 -2.85 -0.65
Q -2.85 -1.1 -3.15 -1.4 -3.35 -1.65 -3.8 -1.65 -4.15 -1.65 -4.4 -1.4
M -4.3 -0.7
Q -4.3 -1 -4.15 -1.2 -3.95 -1.4 -3.8 -1.4 -3.55 -1.4 -3.35 -1.2 -3.25 -1.1 -3.25 -0.7
L -4.3 -0.7
M -5.15 -2.6
L -5.55 -2.6 -5.55 0.5 -5.15 0.5 -5.15 -2.6
M 19.45 14.5
Q 19.45 14.65 19.55 14.65 19.65 14.7 19.7 14.7 19.8 14.7 19.85 14.65
L 19.85 14.35
Q 19.8 14.3 19.7 14.3 19.65 14.3 19.55 14.35 19.45 14.35 19.45 14.5
M 5.5 20.55
Q 5.15 20.85 5.15 21.4 5.15 21.9 5.5 22.2 5.65 22.45 6.1 22.45 6.5 22.45 6.7 22
L 6.8 22 6.8 22.25
Q 6.8 23.05 6 23.05 5.7 23.05 5.35 22.85
L 5.35 23.2
Q 5.65 23.4 6 23.4 7.05 23.4 7.05 22.2
L 7.05 20.3 6.8 20.3 6.8 20.55 6.7 20.55
Q 6.5 20.25 6.15 20.25 5.7 20.25 5.5 20.55
M 5.55 21.4
Q 5.55 21.05 5.7 20.75 5.9 20.5 6.15 20.5 6.45 20.5 6.6 20.7 6.8 20.95 6.8 21.1
L 6.8 21.45
Q 6.8 21.7 6.6 22 6.45 22.2 6.15 22.2 5.9 22.2 5.7 22 5.55 21.7 5.55 21.4
M 8.55 20.25
Q 8.1 20.25 7.85 20.55 7.6 20.85 7.6 21.4 7.6 21.9 7.85 22.2 8.1 22.45 8.55 22.45 9 22.45 9.2 22.25
L 9.2 21.9
Q 8.9 22.2 8.6 22.2 8.25 22.2 8.1 22 7.95 21.85 7.95 21.45
L 9.35 21.45 9.35 21.3
Q 9.35 20.75 9.15 20.5 8.9 20.25 8.55 20.25
M 7.95 21.1
Q 8 20.85 8.1 20.7 8.25 20.5 8.55 20.5 8.75 20.5 8.9 20.7 9 20.85 9 21.1
L 7.95 21.1
M 0.65 20.55
Q 0.7 20.5 0.8 20.5 1.05 20.5 1.3 20.7
L 1.3 20.3
Q 1.05 20.25 0.8 20.25 0.7 20.25 0.5 20.3 0.45 20.3 0.3 20.45 0.2 20.5 0.1 20.55 0.1 20.7 0.1 20.85 0.1 20.95 0.1 21.1 0.1 21.25 0.2 21.25 0.3 21.3 0.35 21.4 0.45 21.4 0.65 21.45 0.7 21.45 0.8 21.55 0.9 21.55 1 21.65
L 1.05 21.7
Q 1.05 21.85 1.05 21.9 1.05 22.2 0.65 22.2 0.3 22.2 0.05 22
L 0.05 22.4
Q 0.3 22.45 0.65 22.45 0.7 22.45 0.9 22.45 1.05 22.4 1.2 22.25 1.25 22.2 1.3 22.05 1.4 22 1.4 21.85 1.4 21.7 1.3 21.65 1.3 21.55 1.25 21.45 1.2 21.4 1.05 21.3 1 21.3 0.8 21.25 0.7 21.25 0.65 21.1 0.5 21.1 0.5 21.05 0.45 21.05 0.45 20.95 0.35 20.95 0.35 20.85 0.35 20.75 0.45 20.7
L 0.5 20.55 0.65 20.55
M 2.8 20.55
L 2.8 20.3 2.25 20.3 2.25 19.7 2.05 19.8 2.05 20.3 1.65 20.3 1.65 20.55 2.05 20.55 2.05 21.85
Q 2.05 22.45 2.55 22.45 2.75 22.45 2.8 22.4
L 2.8 22.05
Q 2.75 22.2 2.65 22.2 2.45 22.2 2.4 22.05 2.25 22 2.25 21.7
L 2.25 20.55 2.8 20.55
M 3.35 20.45
L 3.35 20.75
Q 3.6 20.5 3.95 20.5 4.4 20.5 4.4 21.1
L 3.8 21.25
Q 3.1 21.3 3.1 21.85 3.1 22.05 3.25 22.25 3.4 22.45 3.8 22.45 4.15 22.45 4.4 22.05
L 4.4 22.4 4.75 22.4 4.75 21.05
Q 4.75 20.25 4.1 20.25 3.6 20.25 3.35 20.45
M 4.4 21.4
L 4.4 21.55
Q 4.4 21.85 4.2 22 4.1 22.2 3.9 22.2 3.7 22.2 3.55 22.05 3.4 22 3.4 21.85 3.4 21.65 3.6 21.55 3.7 21.45 3.9 21.4
L 4.4 21.4
M 19.45 7.45
Q 19.45 7.5 19.55 7.5 19.65 7.55 19.7 7.55 19.8 7.55 19.85 7.5
L 19.85 7.45
Q 19.85 7.3 19.85 7.25 19.8 7.15 19.7 7.15 19.65 7.15 19.55 7.25 19.45 7.3 19.45 7.45
M 52.35 14.15
L 52.1 15.25 52.35 15.25 52.65 14.15 52.35 14.15
M 52.65 12.95
Q 52.7 12.8 52.7 12.75 52.7 12.7 52.65 12.6 52.5 12.5 52.45 12.5 52.35 12.5 52.3 12.6 52.3 12.7 52.3 12.75 52.3 12.8 52.3 12.95 52.35 13 52.45 13 52.5 13 52.65 12.95
M 47.6 12.95
L 47.6 12.6
Q 47.5 12.6 47.3 12.6 47.15 12.6 47.1 12.7 46.9 12.75 46.85 13
L 46.85 12.6 46.55 12.6 46.55 14.7 46.85 14.7 46.85 13.65
Q 46.85 13.3 46.95 13 47.1 12.8 47.3 12.8 47.5 12.8 47.6 12.95
M 48.25 13.75
L 48.25 12.6 47.85 12.6 47.85 13.8
Q 47.85 14.7 48.6 14.7 49 14.7 49.2 14.35
L 49.25 14.35 49.25 14.7 49.55 14.7 49.55 12.6 49.25 12.6 49.25 13.8
Q 49.25 14.1 49.1 14.3 48.9 14.45 48.65 14.45 48.25 14.45 48.25 13.75
M 50.35 12.8
Q 50.05 13.15 50.05 13.65 50.05 14.15 50.35 14.45 50.6 14.7 51 14.7 51.5 14.7 51.75 14.5
L 51.75 14.15
Q 51.35 14.45 51.15 14.45 50.75 14.45 50.6 14.3 50.4 14.1 50.4 13.75
L 51.8 13.75 51.8 13.55
Q 51.8 13 51.7 12.75 51.35 12.5 51 12.5 50.6 12.5 50.35 12.8
M 50.4 13.5
Q 50.55 13.15 50.6 13 50.75 12.8 51 12.8 51.2 12.8 51.35 12.95 51.5 13.15 51.5 13.5
L 50.4 13.5
M 45.55 12
L 45.2 12.05 45.2 12.6 44.9 12.6 44.9 12.8 45.2 12.8 45.2 14.1
Q 45.2 14.7 45.75 14.7 45.95 14.7 46.1 14.65
L 46.1 14.35
Q 46 14.45 45.85 14.45 45.7 14.45 45.7 14.35 45.55 14.3 45.55 13.95
L 45.55 12.8 46.1 12.8 46.1 12.6 45.55 12.6 45.55 12
M 66.95 8.1
L 67.2 8.1 67.45 7.1 67.2 7.1 66.95 8.1
M 67.3 5.95
Q 67.4 5.95 67.45 5.8 67.6 5.75 67.6 5.65 67.6 5.55 67.45 5.5 67.4 5.5 67.3 5.5
L 67.2 5.5
Q 67.15 5.55 67.15 5.65 67.15 5.75 67.2 5.8 67.2 5.95 67.3 5.95
M 50.6 -1
Q 50.6 -1.096875 50.6 -1.2 50.603125 -1.096875 50.7 -1
L 51 0.5 51.35 0.5 52 -1.65 51.7 -1.65 51.3 -0.05
Q 51.203125 0.046875 51.2 0.15 51.2 0.046875 51.2 -0.05
L 50.75 -1.65 50.55 -1.65 50 -0.05 49.55 -1.65 49.2 -1.65 49.8 0.5 50.15 0.5 50.6 -1
M 47.5 -1.4
Q 47.25 -1 47.25 -0.6 47.25 -0.05 47.45 0.25 47.7 0.5 48.1 0.5 48.6 0.5 48.85 0.3
L 48.85 0.05
Q 48.6 0.25 48.25 0.25 47.85 0.25 47.7 0.05 47.5 -0.1 47.5 -0.5
L 49 -0.5 49 -0.65
Q 49 -1.1 48.75 -1.4 48.6 -1.65 48.1 -1.65 47.8 -1.65 47.5 -1.4
M 47.5 -0.7
Q 47.6 -1 47.8 -1.2 47.85 -1.4 48.1 -1.4 48.4 -1.4 48.45 -1.2 48.65 -1.1 48.65 -0.7
L 47.5 -0.7
M 45.4 -0.7
Q 45.4 -1 45.5 -1.2 45.7 -1.4 45.95 -1.4 46.35 -1.4 46.35 -0.7
L 46.35 0.5 46.7 0.5 46.7 -0.85
Q 46.7 -1.2 46.55 -1.45 46.35 -1.65 46 -1.65 45.55 -1.65 45.4 -1.25
L 45.4 -1.65 45 -1.65 45 0.5 45.4 0.5 45.4 -0.7 Z"/>

<path fill="#6BB4B4" stroke="none" d="
M 16.9 19.35
L 16.55 19.35 16.55 20.55
Q 16.35 20.25 15.95 20.25 15.55 20.25 15.35 20.55 15.05 20.85 15.05 21.4 15.05 21.9 15.2 22.2 15.5 22.45 15.8 22.45 16.35 22.45 16.55 22
L 16.55 22.4 16.9 22.4 16.9 19.35
M 15.5 20.75
Q 15.7 20.5 16 20.5 16.3 20.5 16.5 20.7 16.55 20.85 16.55 21.1
L 16.55 21.45
Q 16.55 21.7 16.35 22 16.2 22.2 15.95 22.2 15.7 22.2 15.5 22 15.4 21.7 15.4 21.4 15.4 21.05 15.5 20.75
M 19.55 19.9
L 19.55 19.55
Q 19.25 19.45 18.85 19.45 18.25 19.45 17.85 19.9 17.45 20.3 17.45 21.05 17.45 21.65 17.75 22 18.1 22.45 18.7 22.45 19.2 22.45 19.55 22.25
L 19.55 21.9
Q 19.2 22.2 18.85 22.2 18.3 22.2 18.05 21.85 17.75 21.45 17.75 20.95 17.75 20.45 18.05 20.1 18.4 19.7 18.85 19.7 19.25 19.7 19.55 19.9
M 10.75 20.45
L 10.75 20.75
Q 11.1 20.5 11.45 20.5 11.9 20.5 11.9 21.1
L 11.3 21.25
Q 10.55 21.3 10.55 21.85 10.55 22.05 10.75 22.25 10.9 22.45 11.15 22.45 11.65 22.45 11.85 22.05
L 11.9 22.05 11.9 22.4 12.15 22.4 12.15 21.05
Q 12.15 20.25 11.45 20.25 11.1 20.25 10.75 20.45
M 11 21.55
Q 11.1 21.45 11.35 21.4
L 11.9 21.4 11.9 21.55
Q 11.9 21.85 11.7 22 11.5 22.2 11.3 22.2 11.1 22.2 11 22.05 10.9 22 10.9 21.85 10.9 21.65 11 21.55
M 14.55 19.35
L 14.2 19.35 14.2 20.55
Q 14 20.25 13.6 20.25 13.1 20.25 12.9 20.55 12.65 20.85 12.65 21.4 12.65 21.9 12.85 22.2 13.1 22.45 13.45 22.45 14 22.45 14.2 22
L 14.2 22.4 14.55 22.4 14.55 19.35
M 13.1 20.75
Q 13.3 20.5 13.65 20.5 13.9 20.5 14 20.7 14.2 20.85 14.2 21.1
L 14.2 21.45
Q 14.2 21.7 14 22 13.8 22.2 13.6 22.2 13.3 22.2 13.1 22 12.9 21.7 12.9 21.4 12.9 21.05 13.1 20.75
M 9.95 22
Q 9.9 22 9.75 22.05
L 9.75 22.2
Q 9.75 22.25 9.75 22.4 9.9 22.45 9.95 22.45 10 22.45 10.15 22.4 10.2 22.25 10.2 22.2 10.2 22.05 10.15 22.05 10 22 9.95 22
M 30.7 12.6
L 30.7 14.7 31.05 14.7 31.05 12.6 30.7 12.6
M 33.15 12.7
L 33.15 12.6 31.6 12.6 31.6 12.8 32.65 12.8 31.4 14.5 31.4 14.7 33.1 14.7 33.1 14.35 31.95 14.35 33.15 12.7
M 35.25 13.75
L 35.25 13.55
Q 35.25 13 34.9 12.75 34.75 12.5 34.3 12.5 33.95 12.5 33.7 12.8 33.4 13.15 33.4 13.65 33.4 14.15 33.7 14.45 33.9 14.7 34.3 14.7 34.75 14.7 35.05 14.5
L 35.05 14.15
Q 34.75 14.45 34.4 14.45 34.15 14.45 33.95 14.3 33.8 14.1 33.8 13.75
L 35.25 13.75
M 34.75 12.95
Q 34.85 13.15 34.85 13.5
L 33.8 13.5
Q 33.8 13.15 33.95 13 34.15 12.8 34.3 12.8 34.55 12.8 34.75 12.95
M 22.7 20.3
L 22.35 20.3 22.35 22.4 22.7 22.4 22.7 20.3
M 21 20.25
Q 20.6 20.25 20.4 20.7
L 20.4 19.35 20.05 19.35 20.05 22.4 20.4 22.4 20.4 21.25
Q 20.4 20.95 20.6 20.75 20.65 20.5 20.95 20.5 21.4 20.5 21.4 21.25
L 21.4 22.4 21.75 22.4 21.75 21.1
Q 21.75 20.25 21 20.25
M 22.7 19.7
L 22.7 19.45
Q 22.6 19.35 22.55 19.35 22.45 19.35 22.35 19.45
L 22.35 19.7
Q 22.45 19.8 22.55 19.8 22.6 19.8 22.7 19.7
M 25.2 20.25
Q 24.7 20.25 24.45 20.55 24.2 20.85 24.2 21.4 24.2 21.9 24.45 22.2 24.65 22.45 25.05 22.45 25.5 22.45 25.65 22
L 25.8 22 25.8 22.4 26.05 22.4 26.05 19.35 25.8 19.35 25.8 20.55 25.65 20.55
Q 25.5 20.25 25.2 20.25
M 24.7 20.75
Q 24.9 20.5 25.2 20.5 25.45 20.5 25.6 20.7 25.8 20.85 25.8 21.1
L 25.8 21.45
Q 25.8 21.7 25.6 22 25.45 22.2 25.2 22.2 24.85 22.2 24.7 22 24.5 21.7 24.5 21.4 24.5 21.05 24.7 20.75
M 23.7 19.35
L 23.3 19.35 23.3 22.4 23.7 22.4 23.7 19.35
M 20.55 12.75
L 20.55 13.15
Q 20.75 12.8 21.2 12.8 21.55 12.8 21.55 13.35
L 20.95 13.5
Q 20.35 13.55 20.35 14.1 20.35 14.35 20.55 14.5 20.65 14.7 20.95 14.7 21.4 14.7 21.55 14.35
L 21.55 14.7 21.9 14.7 21.9 13.3
Q 21.9 12.5 21.2 12.5 20.75 12.5 20.55 12.75
M 21.55 13.65
L 21.55 13.8
Q 21.55 14.1 21.4 14.3 21.3 14.45 21 14.45 20.85 14.45 20.75 14.35 20.6 14.3 20.6 14.1 20.6 13.9 20.75 13.8 20.85 13.75 21.15 13.65
L 21.55 13.65
M 23.85 12.6
L 23.85 13.8
Q 23.85 14.1 23.7 14.3 23.5 14.45 23.3 14.45 22.75 14.45 22.75 13.75
L 22.75 12.6 22.45 12.6 22.45 13.8
Q 22.45 14.7 23.25 14.7 23.7 14.7 23.85 14.35
L 23.85 14.7 24.2 14.7 24.2 12.6 23.85 12.6
M 27.8 12.8
Q 27.55 12.5 27.1 12.5 26.6 12.5 26.35 12.8 26.05 13.15 26.05 13.65 26.05 14.1 26.35 14.45 26.6 14.7 27 14.7 27.55 14.7 27.8 14.45 28.1 14.1 28.1 13.65 28.1 13.15 27.8 12.8
M 26.6 13
Q 26.75 12.8 27.1 12.8 27.35 12.8 27.55 13 27.75 13.2 27.75 13.65 27.75 13.95 27.55 14.3 27.35 14.45 27.1 14.45 26.75 14.45 26.6 14.3 26.4 13.95 26.4 13.65 26.4 13.3 26.6 13
M 28.75 11.85
Q 28.7 12 28.6 12.15 28.5 12.35 28.5 12.5 28.5 12.7 28.5 12.75 28.6 12.8 28.7 13 28.75 13.15 28.95 13.15 29.05 13.2 29.25 13.3 29.3 13.35 29.5 13.5 29.55 13.55 29.65 13.55 29.7 13.65 29.85 13.75 29.85 13.8 29.85 13.95 29.85 14.15 29.7 14.3 29.55 14.45 29.25 14.45 29.1 14.45 29.05 14.35 28.95 14.35 28.9 14.35 28.75 14.3 28.7 14.3
L 28.5 14.15 28.5 14.5
Q 28.5 14.65 28.6 14.65 28.7 14.65 28.9 14.7 28.95 14.7 29.05 14.7 29.1 14.7 29.25 14.7 29.35 14.7 29.55 14.7 29.7 14.65 29.9 14.5 30.05 14.45 30.1 14.3 30.2 14.15 30.2 13.9 30.2 13.75 30.2 13.65 30.1 13.5 30.05 13.35 29.9 13.3 29.7 13.2 29.55 13.15 29.5 13 29.3 13 29.25 12.95 29.05 12.8 29.05 12.75 28.95 12.75 28.9 12.7 28.9 12.6 28.9 12.5 28.9 12.35 28.9 12.2 28.95 12.15 29.05 12.15 29.1 12.05 29.25 12.05 29.3 12 29.5 12 29.85 12 30.1 12.2
L 30.1 11.8
Q 29.9 11.75 29.5 11.75 29.3 11.75 29.1 11.8 28.95 11.8 28.75 11.85
M 25.25 12
L 24.9 12.05 24.9 12.6 24.5 12.6 24.5 12.8 24.9 12.8 24.9 14.1
Q 24.9 14.7 25.45 14.7 25.6 14.7 25.8 14.65
L 25.8 14.35
Q 25.65 14.45 25.5 14.45 25.35 14.45 25.35 14.35 25.25 14.3 25.25 13.95
L 25.25 12.8 25.8 12.8 25.8 12.6 25.25 12.6 25.25 12
M 23.85 5.8
L 23.85 4.55 23.5 4.55 23.5 7.55 23.85 7.55 23.85 7.25
Q 24.05 7.55 24.45 7.55 24.9 7.55 25.2 7.3 25.35 6.95 25.35 6.5 25.35 6 25.2 5.75 24.9 5.5 24.5 5.5 24.1 5.5 23.85 5.8
M 24.05 5.95
Q 24.2 5.75 24.45 5.75 24.7 5.75 24.9 5.95 25.05 6.1 25.05 6.5 25.05 6.9 24.9 7.1 24.7 7.3 24.4 7.3 24.2 7.3 24.05 7.15 23.85 6.95 23.85 6.7
L 23.85 6.5
Q 23.85 6.1 24.05 5.95
M 20.75 4.55
L 20.4 4.55 20.4 7.55 20.75 7.55 20.75 4.55
M 21.5 6
Q 21.8 5.75 22.15 5.75 22.55 5.75 22.55 6.3
L 22 6.35
Q 21.3 6.5 21.3 6.95 21.3 7.25 21.5 7.45 21.6 7.55 21.9 7.55 22.35 7.55 22.55 7.25
L 22.55 7.55 22.9 7.55 22.9 6.15
Q 22.9 5.5 22.15 5.5 21.8 5.5 21.5 5.65
L 21.5 6
M 22.55 6.55
L 22.55 6.7
Q 22.55 6.95 22.45 7.15 22.3 7.3 22 7.3 21.8 7.3 21.75 7.25 21.6 7.15 21.6 6.95 21.6 6.8 21.75 6.7 21.8 6.6 22.1 6.6
L 22.55 6.55
M 28.35 4.55
L 27.95 4.55 27.95 7.55 28.35 7.55 28.35 4.55
M 26.65 5.5
Q 26.35 5.5 26.05 5.75 25.8 6.1 25.8 6.55 25.8 7.1 26 7.3 26.2 7.55 26.65 7.55 27.1 7.55 27.35 7.45
L 27.35 7.1
Q 27.1 7.3 26.75 7.3 26.45 7.3 26.35 7.15 26.15 6.95 26.15 6.6
L 27.55 6.6 27.55 6.5
Q 27.55 6 27.3 5.75 27.1 5.5 26.65 5.5
M 26.35 5.95
Q 26.45 5.75 26.65 5.75 26.95 5.75 27.1 5.95 27.2 6 27.2 6.35
L 26.15 6.35
Q 26.15 6.1 26.35 5.95
M 30.85 12.05
Q 31 12.05 31.05 12 31.2 12 31.2 11.85 31.2 11.75 31.05 11.75 31 11.6 30.85 11.6 30.8 11.6 30.7 11.75
L 30.7 12
Q 30.8 12.05 30.85 12.05 Z"/>

<path fill="#6F89B0" stroke="none" d="
M 13.2 15.25
L 13.2 15.05 11.5 15.05 11.5 15.25 13.2 15.25
M 18.9 13.35
Q 18.9 12.95 18.7 12.75 18.65 12.5 18.3 12.5 17.85 12.5 17.65 12.95
L 17.65 12.6 17.25 12.6 17.25 14.7 17.65 14.7 17.65 13.5
Q 17.65 13.2 17.75 13 17.95 12.8 18.1 12.8 18.65 12.8 18.65 13.5
L 18.65 14.7 18.9 14.7 18.9 13.35
M 1.5 15.25
L 1.5 15.05 -0.15 15.05 -0.15 15.25 1.5 15.25
M 2.75 12.8
Q 3.25 12.8 3.25 13.5
L 3.25 14.7 3.55 14.7 3.55 13.35
Q 3.55 12.95 3.35 12.75 3.2 12.5 2.8 12.5 2.45 12.5 2.2 12.95
L 2.2 12.6 1.85 12.6 1.85 14.7 2.2 14.7 2.2 13.5
Q 2.2 13.2 2.4 13 2.45 12.8 2.75 12.8
M 5.3 14.35
L 5.3 14.7 5.65 14.7 5.65 13.3
Q 5.65 12.5 4.95 12.5 4.5 12.5 4.2 12.75
L 4.2 13.15
Q 4.5 12.8 4.85 12.8 5.3 12.8 5.3 13.35
L 4.7 13.5
Q 3.95 13.55 3.95 14.1 3.95 14.35 4.15 14.5 4.35 14.7 4.7 14.7 5.05 14.7 5.3 14.35
M 5.3 13.65
L 5.3 13.8
Q 5.3 14.1 5.1 14.3 4.95 14.45 4.75 14.45 4.55 14.45 4.4 14.35 4.35 14.3 4.35 14.1 4.35 13.9 4.5 13.8 4.55 13.75 4.75 13.65
L 5.3 13.65
M 8.4 12.8
Q 8.55 12.8 8.75 12.95 8.8 13.15 8.8 13.5
L 8.8 14.7 9.05 14.7 9.05 13.35
Q 9.05 12.5 8.45 12.5 8 12.5 7.75 12.95 7.65 12.75 7.6 12.7 7.4 12.5 7.25 12.5 6.8 12.5 6.5 12.95
L 6.5 12.6 6.25 12.6 6.25 14.7 6.5 14.7 6.5 13.5
Q 6.5 13.2 6.7 13 6.85 12.8 7.05 12.8 7.45 12.8 7.45 13.5
L 7.45 14.7 7.85 14.7 7.85 13.5
Q 7.85 13.2 8 13 8.1 12.8 8.4 12.8
M 9.9 12.8
Q 9.6 13.15 9.6 13.65 9.6 14.15 9.9 14.45 10 14.7 10.5 14.7 10.9 14.7 11.15 14.5
L 11.15 14.15
Q 10.9 14.45 10.55 14.45 10.3 14.45 10.15 14.3 9.95 14.1 9.95 13.75
L 11.35 13.75 11.35 13.55
Q 11.35 13 11.1 12.75 10.9 12.5 10.5 12.5 10.15 12.5 9.9 12.8
M 10.9 12.95
Q 11 13.15 11 13.5
L 9.95 13.5
Q 9.95 13.15 10.15 13 10.3 12.8 10.5 12.8 10.75 12.8 10.9 12.95
M 1.5 8.25
L 1.5 7.95 -0.15 7.95 -0.15 8.25 1.5 8.25
M 4.95 5.5
Q 4.5 5.5 4.2 5.65
L 4.2 6
Q 4.5 5.75 4.85 5.75 5.3 5.75 5.3 6.3
L 4.7 6.35
Q 3.95 6.5 3.95 6.95 3.95 7.25 4.15 7.45 4.35 7.55 4.7 7.55 5.05 7.55 5.3 7.25
L 5.3 7.55 5.65 7.55 5.65 6.15
Q 5.65 5.5 4.95 5.5
M 4.75 7.3
Q 4.55 7.3 4.4 7.25 4.35 7.15 4.35 6.95 4.35 6.8 4.5 6.7 4.55 6.6 4.75 6.6
L 5.3 6.55 5.3 6.7
Q 5.3 6.95 5.1 7.15 4.95 7.3 4.75 7.3
M 2.2 5.8
L 2.2 5.5 1.85 5.5 1.85 7.55 2.2 7.55 2.2 6.35
Q 2.2 6.1 2.4 5.95 2.45 5.75 2.75 5.75 3.25 5.75 3.25 6.35
L 3.25 7.55 3.55 7.55 3.55 6.3
Q 3.55 5.95 3.35 5.65 3.2 5.5 2.8 5.5 2.45 5.5 2.2 5.8
M 1.4 1.1
L 1.4 0.85 -0.25 0.85 -0.25 1.1 1.4 1.1
M 6.5 5.5
L 6.25 5.5 6.25 7.55 6.5 7.55 6.5 6.35
Q 6.5 6.1 6.7 5.95 6.85 5.75 7.05 5.75 7.45 5.75 7.45 6.35
L 7.45 7.55 7.85 7.55 7.85 6.35
Q 7.85 6.1 8 5.95 8.1 5.75 8.4 5.75 8.55 5.75 8.75 5.95 8.8 6 8.8 6.35
L 8.8 7.55 9.05 7.55 9.05 6.3
Q 9.05 5.5 8.45 5.5 8 5.5 7.75 5.8 7.65 5.65 7.6 5.55 7.4 5.5 7.25 5.5 6.8 5.5 6.5 5.8
L 6.5 5.5
M 16.35 12
L 16 12.05 16 12.6 15.7 12.6 15.7 12.8 16 12.8 16 14.1
Q 16 14.7 16.55 14.7 16.7 14.7 16.8 14.65
L 16.8 14.35
Q 16.7 14.45 16.65 14.45 16.5 14.45 16.35 14.35 16.35 14.3 16.35 13.95
L 16.35 12.8 16.8 12.8 16.8 12.6 16.35 12.6 16.35 12
M 13.8 11.6
L 13.6 11.6 13.6 14.7 13.8 14.7 13.8 14.35
Q 14.05 14.7 14.45 14.7 14.85 14.7 15.15 14.45 15.4 14.1 15.4 13.55 15.4 13.15 15.15 12.8 14.95 12.5 14.55 12.5 14.05 12.5 13.8 12.95
L 13.8 11.6
M 14.85 13
Q 15.05 13.2 15.05 13.55 15.05 13.95 14.85 14.15 14.75 14.45 14.45 14.45 14.2 14.45 14 14.3 13.8 14.1 13.8 13.8
L 13.8 13.55
Q 13.8 13.2 14 13 14.2 12.8 14.45 12.8 14.75 12.8 14.85 13
M 13.2 8.25
L 13.2 7.95 11.5 7.95 11.5 8.25 13.2 8.25
M 13.8 5.8
L 13.8 4.55 13.6 4.55 13.6 7.55 13.8 7.55 13.8 7.25
Q 14.05 7.55 14.45 7.55 14.85 7.55 15.15 7.3 15.4 6.95 15.4 6.5 15.4 6 15.15 5.75 14.95 5.5 14.55 5.5 14.05 5.5 13.8 5.8
M 14.45 5.75
Q 14.75 5.75 14.85 5.95 15.05 6.1 15.05 6.5 15.05 6.9 14.85 7.1 14.75 7.3 14.45 7.3 14.2 7.3 14 7.15 13.8 6.95 13.8 6.7
L 13.8 6.5
Q 13.8 6.1 14 5.95 14.2 5.75 14.45 5.75
M 11.1 5.75
Q 10.9 5.5 10.5 5.5 10.15 5.5 9.9 5.75 9.6 6.1 9.6 6.55 9.6 7.1 9.9 7.3 10 7.55 10.5 7.55 10.9 7.55 11.15 7.45
L 11.15 7.1
Q 10.9 7.3 10.55 7.3 10.3 7.3 10.15 7.15 9.95 6.95 9.95 6.6
L 11.35 6.6 11.35 6.5
Q 11.35 6 11.1 5.75
M 10.5 5.75
Q 10.75 5.75 10.9 5.95 11 6 11 6.35
L 9.95 6.35
Q 9.95 6.1 10.15 5.95 10.3 5.75 10.5 5.75
M 13.1 1.1
L 13.1 0.85 11.35 0.85 11.35 1.1 13.1 1.1
M 17.65 5.5
L 17.25 5.5 17.25 7.55 17.65 7.55 17.65 6.35
Q 17.65 6.1 17.75 5.95 17.95 5.75 18.1 5.75 18.65 5.75 18.65 6.35
L 18.65 7.55 18.9 7.55 18.9 6.3
Q 18.9 5.95 18.7 5.65 18.65 5.5 18.3 5.5 17.85 5.5 17.65 5.8
L 17.65 5.5
M 16.35 5.5
L 16.35 4.85 16 4.95 16 5.5 15.7 5.5 15.7 5.75 16 5.75 16 6.95
Q 16 7.55 16.55 7.55 16.7 7.55 16.8 7.5
L 16.8 7.25
Q 16.7 7.3 16.65 7.3 16.5 7.3 16.35 7.25 16.35 7.15 16.35 6.95
L 16.35 5.75 16.8 5.75 16.8 5.5 16.35 5.5
M 39.15 21.45
L 39.15 21.3
Q 39.15 20.75 38.9 20.5 38.75 20.25 38.25 20.25 37.95 20.25 37.65 20.55 37.4 20.85 37.4 21.4 37.4 21.9 37.6 22.2 37.85 22.45 38.25 22.45 38.75 22.45 39 22.25
L 39 21.9
Q 38.75 22.2 38.35 22.2 38.15 22.2 37.95 22 37.75 21.85 37.65 21.45
L 39.15 21.45
M 38.25 20.5
Q 38.55 20.5 38.6 20.7 38.8 20.85 38.8 21.1
L 37.75 21.1
Q 37.75 20.85 37.95 20.7 38.15 20.5 38.25 20.5
M 32 20.75
Q 32.25 20.5 32.65 20.5 33.1 20.5 33.1 21.1
L 32.45 21.25
Q 31.8 21.3 31.8 21.85 31.8 22.05 31.95 22.25 32.15 22.45 32.45 22.45 32.8 22.45 33.1 22.05
L 33.1 22.4 33.35 22.4 33.35 21.05
Q 33.35 20.25 32.65 20.25 32.25 20.25 32 20.45
L 32 20.75
M 33.1 21.4
L 33.1 21.55
Q 33.1 21.85 32.95 22 32.75 22.2 32.55 22.2 32.25 22.2 32.2 22.05 32.15 22 32.15 21.85 32.15 21.65 32.2 21.55 32.4 21.45 32.55 21.4
L 33.1 21.4
M 34.3 20.7
L 34.3 20.3 33.95 20.3 33.95 22.4 34.3 22.4 34.3 21.25
Q 34.3 20.95 34.5 20.75 34.55 20.5 34.85 20.5 35.3 20.5 35.3 21.1
L 35.3 22.4 35.65 22.4 35.65 21.25
Q 35.65 20.95 35.7 20.75 35.9 20.5 36.05 20.5 36.3 20.5 36.45 20.7 36.6 20.85 36.6 21.25
L 36.6 22.4 36.85 22.4 36.85 21.1
Q 36.85 20.25 36.25 20.25 35.85 20.25 35.55 20.7 35.45 20.5 35.3 20.45 35.25 20.25 34.9 20.25 34.55 20.25 34.3 20.7
M 27.6 22.7
L 27.6 23 29.3 23 29.3 22.7 27.6 22.7
M 26.95 21.3
Q 26.95 20.25 27.55 19.45
L 27.3 19.45
Q 26.65 20.25 26.65 21.3 26.65 22.4 27.3 23.05
L 27.55 23.05
Q 26.95 22.25 26.95 21.3
M 30.05 20.7
L 30.05 20.3 29.65 20.3 29.65 22.4 30.05 22.4 30.05 21.25
Q 30.05 20.95 30.1 20.75 30.25 20.5 30.5 20.5 31 20.5 31 21.25
L 31 22.4 31.3 22.4 31.3 21.1
Q 31.3 20.7 31.2 20.5 31 20.25 30.65 20.25 30.2 20.25 30.05 20.7
M 48.6 23
L 48.9 21.9 48.6 21.9 48.3 23 48.6 23
M 47.1 19.45
Q 47.7 20.25 47.7 21.3 47.7 22.25 47.1 23.05
L 47.3 23.05
Q 47.95 22.4 47.95 21.3 47.95 20.25 47.3 19.45
L 47.1 19.45
M 48.85 20.7
Q 48.9 20.55 48.9 20.5 48.9 20.45 48.85 20.3 48.85 20.25 48.75 20.25 48.6 20.25 48.6 20.3 48.45 20.45 48.45 20.5 48.45 20.55 48.6 20.7
L 48.85 20.7
M 41.05 23
L 41.05 22.7 39.2 22.7 39.2 23 41.05 23
M 41.65 19.35
L 41.25 19.35 41.25 22.4 41.65 22.4 41.65 22.05
Q 41.9 22.45 42.25 22.45 42.65 22.45 42.95 22.05 43.2 21.85 43.2 21.3 43.2 20.85 42.95 20.5 42.8 20.25 42.3 20.25 41.9 20.25 41.65 20.7
L 41.65 19.35
M 41.65 21.55
L 41.65 21.25
Q 41.65 20.95 41.8 20.75 42 20.5 42.25 20.5 42.5 20.5 42.65 20.75 42.85 20.95 42.85 21.3 42.85 21.7 42.65 21.9 42.5 22.2 42.25 22.2 42 22.2 41.8 22 41.65 21.85 41.65 21.55
M 45.4 21.25
Q 45.4 20.95 45.55 20.75 45.7 20.5 45.95 20.5 46.45 20.5 46.45 21.25
L 46.45 22.4 46.7 22.4 46.7 21.1
Q 46.7 20.7 46.55 20.5 46.35 20.25 46.1 20.25 45.7 20.25 45.4 20.7
L 45.4 20.3 45 20.3 45 22.4 45.4 22.4 45.4 21.25
M 44.05 19.7
L 43.8 19.8 43.8 20.3 43.45 20.3 43.45 20.55 43.8 20.55 43.8 21.85
Q 43.8 22.45 44.35 22.45 44.55 22.45 44.6 22.4
L 44.6 22.05
Q 44.55 22.2 44.4 22.2 44.25 22.2 44.2 22.05 44.05 22 44.05 21.7
L 44.05 20.55 44.6 20.55 44.6 20.3 44.05 20.3 44.05 19.7
M 43.2 13.95
L 43.2 13.75 41.35 13.75 41.35 13.95 43.2 13.95
M 43.2 13.15
L 43.2 12.8 41.35 12.8 41.35 13.15 43.2 13.15
M 43.1 6.6
L 41.25 6.6 41.25 6.9 43.1 6.9 43.1 6.6
M 41.25 5.8
L 41.25 6.1 43.1 6.1 43.1 5.8 41.25 5.8
M 68 0.05
L 67.75 1.05 68 1.05 68.25 0.05 68 0.05
M 66.8 -2.4
L 66.5 -2.4
Q 67.15 -1.65 67.15 -0.65 67.15 0.35 66.5 1.1
L 66.8 1.1
Q 67.4 0.35 67.4 -0.65 67.4 -1.7 66.8 -2.4
M 66.45 -2.4
L 66.05 -2.4
Q 65.45 -1.7 65.45 -0.65 65.45 0.35 66.05 1.1
L 66.45 1.1
Q 65.85 0.35 65.85 -0.65 65.85 -1.65 66.45 -2.4
M 68.25 -1.65
Q 68.2 -1.65 68.1 -1.65
L 68 -1.65
Q 67.95 -1.55 67.95 -1.45 67.95 -1.4 68 -1.25 68 -1.2 68.1 -1.2 68.2 -1.2 68.25 -1.25 68.35 -1.4 68.35 -1.45 68.35 -1.55 68.25 -1.65
M 64.75 -1.45
Q 64.55 -1.65 64.25 -1.65 63.75 -1.65 63.6 -1.25
L 63.6 -1.65 63.3 -1.65 63.3 0.5 63.6 0.5 63.6 -0.7
Q 63.6 -1 63.7 -1.2 63.9 -1.4 64.15 -1.4 64.55 -1.4 64.55 -0.7
L 64.55 0.5 64.9 0.5 64.9 -0.85
Q 64.9 -1.2 64.75 -1.45
M 62.75 -0.6
Q 62.75 -1.1 62.45 -1.4 62.2 -1.65 61.75 -1.65 61.35 -1.65 61 -1.4 60.7 -1.1 60.7 -0.6 60.7 -0.05 61 0.25 61.25 0.5 61.75 0.5 62.2 0.5 62.45 0.25 62.75 -0.05 62.75 -0.6
M 62.2 -1.2
Q 62.4 -0.9 62.4 -0.6 62.4 -0.25 62.2 0.05 62 0.25 61.75 0.25 61.4 0.25 61.25 0.05 61.05 -0.25 61.05 -0.6 61.05 -0.9 61.25 -1.2 61.4 -1.4 61.75 -1.4 62 -1.4 62.2 -1.2
M 59.9 -1.65
L 59.9 -2.25 59.55 -2.15 59.55 -1.65 59.25 -1.65 59.25 -1.4 59.55 -1.4 59.55 -0.1
Q 59.55 0.5 60.2 0.5 60.4 0.5 60.45 0.5
L 60.45 0.15
Q 60.4 0.25 60.25 0.25 60.1 0.25 60 0.15 59.9 0.05 59.9 -0.1
L 59.9 -1.4 60.45 -1.4 60.45 -1.65 59.9 -1.65
M 57.5 -1.65
L 57.1 -1.65 57.1 -0.4
Q 57.1 -0.1 57 0.05 56.8 0.25 56.55 0.25 56.15 0.25 56.15 -0.4
L 56.15 -1.65 55.8 -1.65 55.8 -0.4
Q 55.8 0.5 56.5 0.5 56.95 0.5 57.1 0.15
L 57.1 0.5 57.5 0.5 57.5 -1.65
M 57.9 -1.65
L 57.9 -1.4 58.25 -1.4 58.25 -0.1
Q 58.25 0.5 58.75 0.5 58.95 0.5 59.05 0.5
L 59.05 0.15
Q 58.95 0.25 58.85 0.25 58.7 0.25 58.55 0.15 58.5 0.05 58.5 -0.1
L 58.5 -1.4 59.05 -1.4 59.05 -1.65 58.5 -1.65 58.5 -2.25 58.25 -2.15 58.25 -1.65 57.9 -1.65
M 55.2 -1.8
Q 55.2 -2.05 54.9 -2.25 54.7 -2.4 54.4 -2.4
L 53.6 -2.4 53.6 0.5 54.4 0.5
Q 54.7 0.5 55.05 0.25 55.25 0.05 55.25 -0.4 55.25 -0.65 55.05 -0.85 55 -1 54.65 -1.1 54.9 -1.2 55 -1.4 55.2 -1.55 55.2 -1.8
M 53.85 -2.15
L 54.3 -2.15
Q 54.8 -2.15 54.8 -1.7 54.8 -1.45 54.65 -1.4 54.45 -1.2 54.2 -1.2
L 53.85 -1.2 53.85 -2.15
M 53.85 -0.9
L 54.3 -0.9
Q 54.9 -0.9 54.9 -0.4 54.9 -0.1 54.8 0.05 54.65 0.15 54.3 0.15
L 53.85 0.15 53.85 -0.9
M 41.25 -0.5
L 41.25 -0.1 43.1 -0.1 43.1 -0.5 41.25 -0.5
M 41.25 -1.25
L 41.25 -1 43.1 -1 43.1 -1.25 41.25 -1.25
M 16.2 -1.65
L 16.2 -2.25 15.95 -2.15 15.95 -1.65 15.55 -1.65 15.55 -1.4 15.95 -1.4 15.95 -0.1
Q 15.95 0.5 16.5 0.5 16.65 0.5 16.7 0.5
L 16.7 0.15
Q 16.65 0.25 16.55 0.25 16.35 0.25 16.3 0.15 16.2 0.05 16.2 -0.1
L 16.2 -1.4 16.7 -1.4 16.7 -1.65 16.2 -1.65
M 17.5 -1.65
L 17.15 -1.65 17.15 0.5 17.5 0.5 17.5 -0.7
Q 17.5 -1 17.7 -1.2 17.75 -1.4 18.05 -1.4 18.6 -1.4 18.6 -0.7
L 18.6 0.5 18.85 0.5 18.85 -0.85
Q 18.85 -1.2 18.65 -1.45 18.5 -1.65 18.1 -1.65 17.75 -1.65 17.5 -1.25
L 17.5 -1.65
M 13.75 -2.6
L 13.4 -2.6 13.4 0.5 13.75 0.5 13.75 0.15
Q 13.9 0.5 14.35 0.5 14.8 0.5 15.05 0.25 15.35 -0.1 15.35 -0.65 15.35 -1.1 15.05 -1.4 14.85 -1.65 14.45 -1.65 14 -1.65 13.75 -1.25
L 13.75 -2.6
M 13.75 -0.65
Q 13.75 -1 13.9 -1.2 14.05 -1.4 14.35 -1.4 14.6 -1.4 14.8 -1.2 14.95 -1 14.95 -0.65 14.95 -0.25 14.8 0.05 14.6 0.25 14.35 0.25 14.05 0.25 13.9 0.05 13.75 -0.1 13.75 -0.4
L 13.75 -0.65
M 9.75 -1.4
Q 9.55 -1 9.55 -0.6 9.55 -0.05 9.7 0.25 9.95 0.5 10.35 0.5 10.85 0.5 11.1 0.3
L 11.1 0.05
Q 10.85 0.25 10.5 0.25 10.15 0.25 9.95 0.05 9.75 -0.1 9.75 -0.5
L 11.3 -0.5 11.3 -0.65
Q 11.3 -1.1 11 -1.4 10.85 -1.65 10.35 -1.65 10 -1.65 9.75 -1.4
M 9.75 -0.7
Q 9.9 -1 10 -1.2 10.15 -1.4 10.35 -1.4 10.7 -1.4 10.75 -1.2 10.9 -1.1 10.9 -0.7
L 9.75 -0.7
M 6.45 -0.7
Q 6.45 -1 6.6 -1.2 6.7 -1.4 7 -1.4 7.4 -1.4 7.4 -0.7
L 7.4 0.5 7.75 0.5 7.75 -0.7
Q 7.75 -1 7.85 -1.2 8 -1.4 8.2 -1.4 8.45 -1.4 8.55 -1.2 8.6 -1.1 8.6 -0.7
L 8.6 0.5 9 0.5 9 -0.85
Q 9 -1.65 8.4 -1.65 7.85 -1.65 7.65 -1.2 7.6 -1.45 7.4 -1.55 7.3 -1.65 7.05 -1.65 6.7 -1.65 6.45 -1.25
L 6.45 -1.65 6.1 -1.65 6.1 0.5 6.45 0.5 6.45 -0.7
M 4.55 -0.7
Q 3.9 -0.65 3.9 -0.05 3.9 0.25 4.1 0.35 4.2 0.5 4.55 0.5 4.95 0.5 5.15 0.15
L 5.15 0.5 5.5 0.5 5.5 -0.85
Q 5.5 -1.65 4.75 -1.65 4.4 -1.65 4.1 -1.45
L 4.1 -1.1
Q 4.4 -1.4 4.75 -1.4 5.15 -1.4 5.15 -0.85
L 4.55 -0.7
M 4.35 -0.4
Q 4.5 -0.5 4.7 -0.5
L 5.15 -0.6 5.15 -0.4
Q 5.15 -0.1 5.05 0.05 4.85 0.25 4.55 0.25 4.4 0.25 4.35 0.15 4.2 0.05 4.2 -0.1 4.2 -0.3 4.35 -0.4
M 2.15 -0.7
Q 2.15 -1 2.2 -1.2 2.4 -1.4 2.65 -1.4 3.1 -1.4 3.1 -0.7
L 3.1 0.5 3.4 0.5 3.4 -0.85
Q 3.4 -1.2 3.25 -1.45 3.1 -1.65 2.75 -1.65 2.25 -1.65 2.15 -1.25
L 2.15 -1.65 1.8 -1.65 1.8 0.5 2.15 0.5 2.15 -0.7 Z"/>

<path fill="#999999" stroke="none" d="
M 24.2 0.3
Q 24.2 0.25 24.1 0.15 24.05 0.05 23.9 0.05 23.85 0.05 23.85 0.15 23.75 0.25 23.75 0.3 23.75 0.35 23.85 0.5
L 23.9 0.5
Q 24.05 0.5 24.1 0.5 24.2 0.35 24.2 0.3
M 39.75 -2.4
L 39.4 -2.4 38.15 0.9 38.35 0.9 39.75 -2.4
M 37.4 -2.4
L 37.15 -2.4 37.2 -1.8 36.7 -2 36.6 -1.8 37.15 -1.65 36.8 -1.2 37 -1 37.3 -1.55 37.6 -1 37.85 -1.2 37.45 -1.65 38 -1.8 37.95 -2 37.4 -1.8 37.4 -2.4
M 34.85 -1.25
L 34.85 -1.65 34.5 -1.65 34.5 0.5 34.85 0.5 34.85 -0.7
Q 34.85 -1 34.9 -1.2 35.1 -1.4 35.35 -1.4 35.85 -1.4 35.85 -0.7
L 35.85 0.5 36.2 0.5 36.2 -0.85
Q 36.2 -1.2 36 -1.45 35.85 -1.65 35.45 -1.65 35.05 -1.65 34.85 -1.25
M 32.2 -1.4
Q 31.95 -1.1 31.95 -0.6 31.95 -0.05 32.2 0.25 32.45 0.5 32.95 0.5 33.4 0.5 33.7 0.25 33.95 -0.05 33.95 -0.6 33.95 -1.1 33.7 -1.4 33.4 -1.65 33 -1.65 32.55 -1.65 32.2 -1.4
M 32.25 -0.6
Q 32.25 -0.9 32.45 -1.2 32.65 -1.4 33 -1.4 33.3 -1.4 33.4 -1.2 33.6 -0.9 33.6 -0.6 33.6 -0.25 33.4 0.05 33.3 0.25 33 0.25 32.65 0.25 32.45 0.05 32.25 -0.25 32.25 -0.6
M 31.2 -2.25
L 30.8 -2.15 30.8 -1.65 30.45 -1.65 30.45 -1.4 30.8 -1.4 30.8 -0.1
Q 30.8 0.5 31.3 0.5 31.5 0.5 31.65 0.5
L 31.65 0.15
Q 31.6 0.25 31.4 0.25 31.3 0.25 31.25 0.15 31.2 0.05 31.2 -0.1
L 31.2 -1.4 31.65 -1.4 31.65 -1.65 31.2 -1.65 31.2 -2.25
M 29.7 -1.65
L 29.7 -2.25 29.5 -2.15 29.5 -1.65 29.1 -1.65 29.1 -1.4 29.5 -1.4 29.5 -0.1
Q 29.5 0.5 30.05 0.5 30.2 0.5 30.25 0.5
L 30.25 0.15
Q 30.2 0.25 30.1 0.25 29.9 0.25 29.85 0.15 29.7 0.05 29.7 -0.1
L 29.7 -1.4 30.25 -1.4 30.25 -1.65 29.7 -1.65
M 26.15 -2.25
Q 26 -2.4 25.6 -2.4
L 24.7 -2.4 24.7 0.5 25.6 0.5
Q 26 0.5 26.2 0.25 26.45 0.05 26.45 -0.4 26.45 -0.65 26.35 -0.85 26.15 -1 25.85 -1.1 26.15 -1.2 26.2 -1.4 26.4 -1.55 26.4 -1.8 26.4 -2.05 26.15 -2.25
M 25.05 -1.2
L 25.05 -2.15 25.5 -2.15
Q 26.05 -2.15 26.05 -1.7 26.05 -1.45 25.85 -1.4 25.65 -1.2 25.45 -1.2
L 25.05 -1.2
M 25.5 -0.9
Q 26.15 -0.9 26.15 -0.4 26.15 -0.1 26.05 0.05 25.85 0.15 25.5 0.15
L 25.05 0.15 25.05 -0.9 25.5 -0.9
M 27.35 -1.65
L 27 -1.65 27 -0.4
Q 27 0.5 27.75 0.5 28.15 0.5 28.35 0.15
L 28.35 0.5 28.7 0.5 28.7 -1.65 28.35 -1.65 28.35 -0.4
Q 28.35 -0.1 28.25 0.05 28.1 0.25 27.8 0.25 27.35 0.25 27.35 -0.4
L 27.35 -1.65
M 23.9 -1.65
L 23.85 -1.65
Q 23.75 -1.55 23.75 -1.45 23.75 -1.4 23.85 -1.25 23.85 -1.2 23.9 -1.2 24.05 -1.2 24.1 -1.25 24.2 -1.4 24.2 -1.45 24.2 -1.55 24.1 -1.65 24.05 -1.65 23.9 -1.65
M 22.6 -1.8
L 22.1 -2 22 -1.8 22.55 -1.65 22.15 -1.2 22.35 -1 22.7 -1.55 22.95 -1 23.25 -1.2 22.9 -1.65 23.45 -1.8 23.3 -2 22.75 -1.8 22.75 -2.4 22.55 -2.4 22.6 -1.8
M 21.9 -2.4
L 21.55 -2.4 20.25 0.9 20.55 0.9 21.9 -2.4 Z"/>

<path fill="#6CB56A" stroke="none" d="
M 44.95 4.65
L 44.95 5.55 45.35 5.55 45.35 4.65 44.95 4.65
M 46.9 5.5
L 46.65 5.5 46.65 7.5
Q 46.65 8.25 46.15 8.25 46 8.25 45.85 8.25
L 45.85 8.45
Q 46 8.55 46.15 8.55 46.55 8.55 46.7 8.3 46.9 7.95 46.9 7.5
L 46.9 5.5
M 47.6 5.65
L 47.6 6
Q 47.95 5.75 48.3 5.75 48.75 5.75 48.75 6.3
L 48.1 6.35
Q 47.45 6.5 47.45 6.95 47.45 7.25 47.6 7.45 47.8 7.55 48.05 7.55 48.45 7.55 48.75 7.25
L 48.75 7.55 49 7.55 49 6.15
Q 49 5.5 48.3 5.5 47.95 5.5 47.6 5.65
M 48.6 7.15
Q 48.4 7.3 48.1 7.3 47.95 7.3 47.85 7.25 47.8 7.15 47.8 6.95 47.8 6.8 47.85 6.7 48.05 6.6 48.25 6.6
L 48.75 6.55 48.75 6.7
Q 48.75 6.95 48.6 7.15
M 45.95 4.65
L 45.7 4.65 45.7 5.55 45.95 5.55 45.95 4.65
M 46.9 4.6
Q 46.9 4.55 46.85 4.55 46.7 4.55 46.65 4.6 46.55 4.65 46.55 4.8 46.55 4.85 46.65 4.95 46.7 4.95 46.85 4.95 46.9 4.95 46.9 4.85 46.95 4.85 46.95 4.8 46.95 4.65 46.9 4.6
M 58.85 7.45
Q 58.85 7.3 58.85 7.25 58.75 7.15 58.7 7.15 58.55 7.15 58.5 7.25 58.45 7.3 58.45 7.45 58.45 7.5 58.5 7.5 58.55 7.55 58.7 7.55 58.75 7.55 58.85 7.5
L 58.85 7.45
M 53.25 5.5
L 52.9 5.5 52.9 7.55 53.25 7.55 53.25 5.5
M 55.55 5.75
Q 55.25 5.5 54.8 5.5 54.3 5.5 54.05 5.75 53.75 6 53.75 6.55 53.75 7.1 54.05 7.3 54.3 7.55 54.7 7.55 55.2 7.55 55.55 7.3 55.8 6.95 55.8 6.55 55.8 6 55.55 5.75
M 54.7 5.75
Q 55.05 5.75 55.25 5.95 55.4 6.15 55.4 6.55 55.4 6.9 55.25 7.15 55.05 7.3 54.7 7.3 54.45 7.3 54.3 7.15 54.1 6.9 54.1 6.55 54.1 6.15 54.3 5.95 54.45 5.75 54.7 5.75
M 51 5.95
L 51 5.55
Q 50.85 5.5 50.6 5.5 50.05 5.5 49.8 5.75 49.55 6.1 49.55 6.55 49.55 7.1 49.8 7.3 50.05 7.55 50.55 7.55 50.75 7.55 51 7.5
L 51 7.15
Q 50.75 7.3 50.55 7.3 50.2 7.3 50.05 7.15 49.85 6.9 49.85 6.55 49.85 6.15 50.05 5.95 50.2 5.75 50.6 5.75 50.85 5.75 51 5.95
M 51.3 5.5
L 51.3 5.75 51.7 5.75 51.7 6.95
Q 51.7 7.55 52.15 7.55 52.35 7.55 52.45 7.5
L 52.45 7.25
Q 52.35 7.3 52.3 7.3 52.1 7.3 52 7.25 52 7.15 52 6.95
L 52 5.75 52.45 5.75 52.45 5.5 52 5.5 52 4.85 51.7 4.95 51.7 5.5 51.3 5.5
M 53.05 4.55
Q 52.95 4.55 52.95 4.6 52.9 4.65 52.9 4.8 52.9 4.85 52.95 4.95
L 53.05 4.95
Q 53.15 4.95 53.25 4.85 53.3 4.85 53.3 4.8 53.3 4.65 53.25 4.6 53.15 4.55 53.05 4.55
M 56.75 5.95
Q 56.95 5.75 57.2 5.75 57.6 5.75 57.6 6.35
L 57.6 7.55 57.95 7.55 57.95 6.3
Q 57.95 5.95 57.8 5.65 57.6 5.5 57.3 5.5 56.8 5.5 56.55 5.8
L 56.55 5.5 56.35 5.5 56.35 7.55 56.55 7.55 56.55 6.35
Q 56.55 6.1 56.75 5.95
M 61.05 7.3
Q 61.35 6.95 61.35 6.55 61.35 6 61.05 5.75 60.8 5.5 60.4 5.5 59.85 5.5 59.55 5.75 59.3 6 59.3 6.55 59.3 7.1 59.55 7.3 59.85 7.55 60.25 7.55 60.8 7.55 61.05 7.3
M 61 6.55
Q 61 6.9 60.8 7.15 60.6 7.3 60.4 7.3 60 7.3 59.85 7.15 59.65 6.9 59.65 6.55 59.65 6.15 59.85 5.95 60 5.75 60.4 5.75 60.6 5.75 60.8 5.95 61 6.15 61 6.55
M 64.7 5.75
Q 64.35 5.5 64.05 5.5 63.6 5.5 63.35 5.75 63.1 6.1 63.1 6.6 63.1 7.1 63.35 7.3 63.55 7.55 63.95 7.55 64.35 7.55 64.7 7.25
L 64.7 7.45
Q 64.7 8.25 63.9 8.25 63.6 8.25 63.3 8.05
L 63.3 8.4
Q 63.55 8.55 63.9 8.55 64.9 8.55 64.9 7.45
L 64.9 5.5 64.7 5.5 64.7 5.75
M 63.6 5.95
Q 63.75 5.75 64.05 5.75 64.3 5.75 64.5 5.95 64.7 6.1 64.7 6.35
L 64.7 6.6
Q 64.7 6.95 64.5 7.15 64.3 7.3 64.05 7.3 63.75 7.3 63.6 7.15 63.4 6.9 63.4 6.55 63.4 6.15 63.6 5.95
M 62.4 5.55
Q 62.2 5.65 62.15 5.95
L 62.15 5.5 61.85 5.5 61.85 7.55 62.15 7.55 62.15 6.55
Q 62.15 6.15 62.3 5.95 62.45 5.75 62.6 5.75 62.8 5.75 62.9 5.8
L 62.9 5.5
Q 62.8 5.5 62.6 5.5 62.45 5.5 62.4 5.55
M 65.9 5.55
L 65.9 4.65 65.65 4.65 65.65 5.55 65.9 5.55
M 66.25 4.65
L 66.25 5.55 66.6 5.55 66.6 4.65 66.25 4.65 Z"/>
</g>
</defs>

<g transform="matrix( 1, 0, 0, 1, 9.6,6.6) ">
<use xlink:href="#Layer0_0_FILL"/>
</g>
</svg>
