
<svg xmlns="http://www.w3.org/2000/svg" version="1.1" xmlns:xlink="http://www.w3.org/1999/xlink" preserveAspectRatio="none" x="0px" y="0px" width="22px" height="22px" viewBox="0 0 22 22">
<defs>
<g id="Layer0_0_FILL">
<path fill="#6994CD" stroke="none" d="
M 21 4
L 21.75 2.5 21.75 2.45
Q 21.9 1.95 21.6 1.7
L 19.1 -0.75
Q 18.65 -1.45 17.25 0.4
L 8.75 12.65 4.05 6.95
Q 2.8 5.55 2.25 6.45
L 0.2 8.9
Q -0.1 9.45 0.1 10.35
L 0.1 10.4 7.55 19.5
Q 8.4 20.3 8.65 20.3
L 9.25 20.25 9.55 20.15
Q 10.1 19.8 10.6 19
L 21 4 Z"/>

<path fill="#0C1218" stroke="none" d="
M 21.2 4.85
Q 21.8 3.85 21.85 3.35 22.1 2.7 21.75 2.5
L 21 4 10.6 19
Q 10.1 19.8 9.55 20.15
L 9.25 20.25 8.65 20.3
Q 8.4 20.3 7.55 19.5
L 0.1 10.4
Q 0.1 10.85 0.3 11.2
L 7.8 20.3
Q 8.45 21 8.85 21
L 9.6 21
Q 10.25 20.45 10.75 19.75
L 21.2 4.85 Z"/>
</g>
</defs>

<g transform="matrix( 0.77447509765625, 0, 0, 0.774322509765625, 3,3.25) ">
<use xlink:href="#Layer0_0_FILL"/>
</g>
</svg>
