
<svg xmlns="http://www.w3.org/2000/svg" version="1.1" xmlns:xlink="http://www.w3.org/1999/xlink" preserveAspectRatio="none" x="0px" y="0px" width="1800px" height="490px" viewBox="0 0 1800 490">
<defs>
<g id="Layer0_0_FILL">
<path fill="#FFFFFF" stroke="none" d="
M 272.75 466.65
L 245.9 469.9 221.65 470.2 221.35 470.15
Q 220.35 470.15 218.45 470.05
L 217.1 469.95
Q 216.15 469.9 215.7 469.85
L 194.55 467.8
Q 194.35 467.75 193.95 467.7
L 191.25 467.3
Q 190.3 467.1 189.9 467.05 188.95 466.9 188.5 466.85
L 187.25 466.55 186.95 466.55 180.1 465.25 179.8 465.25 158.45 459.55 158.3 459.55 144.6 454.65 127.6 447.1
Q 123 444.8 117.1 441.5
L 108.25 436.15 108.2 436.15
Q 108.1 436.05 108.1 436.15
L 108.05 436.2 116.3 442.8
Q 121.35 446.6 126.05 449.8
L 135.3 455.7 145.2 461.35 155.4 466.45 155.55 466.6 170.2 472.75 185.85 478.25 195.35 481 215.3 485.5 231.15 487.95
Q 231.4 488 231.9 488.05
L 247.15 489.5
Q 247.4 489.5 247.85 489.55
L 248.6 489.55
Q 250.55 489.7 251.5 489.7 252 489.75 252.95 489.8
L 276.05 489.7 292.3 488.3
Q 296.85 487.6 297.2 487.6
L 322.6 482.4
Q 329.35 480.65 334.95 478.8
L 345.35 475.2
Q 351.65 472.95 354.45 466.95 357.35 460.9 355.05 454.6 352.85 448.35 346.8 445.5 340.8 442.65 334.45 444.95 333.65 445.2 332.55 445.8
L 323.75 450.2
Q 319.05 452.45 313.55 454.7
L 297.25 460.65 283.2 464.5
Q 280.5 465.05 278.6 465.45
L 272.75 466.65
M 125.4 303.4
Q 125.35 303.35 125.3 303.4
L 125.3 303.5
Q 128.35 308.4 131.35 312.65
L 132.7 314.5 132.75 314.6 132.75 314.7 133.85 316 134 316.3 134.15 316.45 134.15 316.5 134.25 316.55 135.8 318.65 135.95 318.75 137.45 320.7 137.45 320.75 137.55 320.8 137.65 320.95 151.2 335.65
Q 150.55 338.45 149.8 341.7
L 145.1 357.6 141.5 367.9 141.5 367.95 140.9 369.45
Q 140.55 370.8 139.55 373.45
L 130.5 397.2
Q 128.75 401.75 130.7 406.3 132.7 410.8 137.3 412.6 141.9 414.35 146.4 412.4 150.95 410.4 152.65 405.8 153.15 404.6 153.3 403.45
L 153.35 403.4 158.1 372 158.1 371.9 158.15 371.8 158.15 371.55 160.9 343.15
Q 160.95 338.35 160.95 334.45
L 160.95 333.5
Q 160.9 331.3 159.1 330.2
L 154.5 327.5 140.8 317.55 140.75 317.5 140.65 317.5 138.85 315.9 138.7 315.85 136.8 314.15 136.7 314.15 135 312.6 135 312.55 134.9 312.55 133.25 311
Q 128.8 307.05 125.4 303.4
M 41.35 130.9
L 48.45 117.2
Q 50.7 113.3 52.35 110.6
L 53.8 108.25
Q 53.95 108.1 53.8 108.1 53.75 108.05 53.75 108.15
L 47.25 116.3
Q 44.95 119.35 43.9 120.8
L 31.9 139.45
Q 28.9 144.75 27.55 147.35 25.05 152.25 23.25 156.05
L 19.2 165.45
Q 17.05 170.55 15.3 175.4 13.7 179.7 11.75 185.95 10 191.65 8.65 196.85 7 203.3 5.95 208.15
L 4.95 213.15 4.85 213.5 3.75 219.65
Q 2.75 225.4 2 231.25
L 0.15 253.35 0 265.8
Q 0.05 271.05 0.35 276.8
L 0.75 283.15 3.95 306.65
Q 5.4 314.3 7.55 322.75
L 11.7 336.5 11.7 336.65 11.75 336.75 11.75 336.8 14.85 345.65
Q 17.15 351.9 23.15 354.7 29.25 357.45 35.5 355.2 41.8 352.85 44.55 346.8 47.35 340.75 45 334.45 44.75 333.65 44.2 332.6
L 40.55 325.45 40.55 325.4
Q 40.55 325.35 40.5 325.35
L 35.25 313.65
Q 32.7 307.55 30.25 300
L 26.2 285.8 26.1 285.6 23.55 274
Q 22.5 268.15 21.9 264.2
L 20.6 252.55 19.65 235.65 19.7 235.45 19.65 232.4
Q 19.6 225.95 19.8 221.35
L 19.8 221.3 19.75 221.25 20.4 210.3
Q 20.85 205.2 21.55 199.4 22.35 193.05 23.1 188.65 24 183.3 25.15 178.25 26.5 172.35 27.55 168.3
L 30.3 158.75
Q 32.15 153.15 33.3 149.95 35.15 145.05 36.5 141.7
L 41.35 130.9
M 602.7 273
Q 602.5 261.1 595.3 253.55 593.45 251.55 591.25 249.95
L 535.5 249.95 533.95 258
Q 547.15 258.45 553.65 263.85 559.95 269.2 559.95 277.9 559.7 285.3 557 294.95 554.1 304.75 550.5 315.7 547.15 326.9 543.85 338.3 540.9 349.55 540.7 360 541.1 383.3 555.45 392.9 569.55 402.75 593.95 402.55
L 605.6 402.55 612.1 369 604.9 369
Q 595.1 369 590.35 364.05 585.45 359.35 585.45 350.6 585.7 343.25 588.15 333.65 590.35 324 593.95 313.5 597.55 302.75 600 292.25 602.5 281.7 602.7 273
M 369.8 141.15
L 369.95 141.35 370.7 142.75 370.95 142.95 374.8 150.2 378.6 158.95 382.5 171.35 384.65 182.55 385.45 198.25 385.4 198.3 385.4 198.55 385.3 198.8 385.3 198.95 385.2 199.55 384.5 201.05
Q 384.05 201.65 383.4 202.3 383.05 202.65 382.95 202.95
L 382.95 203.05
Q 381.75 206.05 381.2 208.25 380.35 211.35 380.1 213.55 379.75 216.15 379.65 219.1 379.65 222 380.1 224.65 380.5 227.2 381.35 230.05 382.2 232.65 383.45 235.15 384.5 237.3 386.2 239.95
L 388.35 242.9 388.5 243 392.8 248.4
Q 395.6 251.85 396.1 252.45
L 413.1 275.7 413.25 275.75 389.9 286.95
Q 389.2 287.25 388.85 287.95 388.55 288.6 388.6 289.35
L 392.6 316.2 386.9 323.35
Q 386.25 324.1 386.4 325.1
L 386.4 325.25 388.5 337 380.85 348.65
Q 380.35 349.35 380.45 350.15 380.85 353.6 380.9 357.8 380.95 361.5 380.7 365.5 380.15 373.15 378.35 380.75
L 378.3 380.95 378.3 381.15 378.2 381.6 378.2 381.65 378.1 381.85 378 382 377.9 382.45
Q 377.7 383.1 377.3 383.85 376.75 384.7 376.4 385.05
L 376.35 385.2 376.2 385.3 376.1 385.4 375.85 385.55 375.65 385.8 375.45 385.95
Q 374.9 386.35 374.1 386.55
L 372.7 386.95
Q 372.15 387.05 371 387.05
L 370.5 387.05 364.85 386.5 364.55 386.5 349.75 384.65 334.8 382.05 313.4 376.9 300.7 373.05 277.3 364.25 277.25 364.2 277.05 364.2 274.7 363
Q 273.05 362.25 271.3 361.25 269.7 360.45 267.95 359.3 266.1 358.15 264.85 357.15 261.8 354.95 259.05 352.15 256.3 349.35 254.15 346.4 252 343.4 250.25 339.95 248.5 336.55 247.35 332.85 246.2 329.4 245.5 325.45 244.75 321.85 244.5 317.75
L 243.95 305.9 240.55 270.5
Q 240.55 270 240.15 269.65 239.7 269.4 239.3 269.45 238.25 269.5 238.15 270.6
L 237.6 322.5
Q 237.75 325.35 237.9 326.75 238.5 331.5 239.5 335.4
L 240.75 339.6
Q 241.45 341.85 242.4 343.85 243.25 345.8 244.25 347.9 245.95 350.8 246.55 351.8
L 249.25 355.5
Q 250.7 357.5 252.15 359.05
L 255.35 362.3
Q 257.15 364 258.75 365.25 260.35 366.65 262.35 368 264 369.2 266.1 370.55 267.8 371.65 269.95 372.75
L 270.45 373.05 272.75 374.15 272.85 374.25 285.05 379.75 308.45 388.55 331.65 394.9 349.75 398.4 370.7 401 370.95 401
Q 373.1 401 374.6 400.7 376.75 400.45 378.85 399.8 381.2 398.9 383.1 397.65
L 384.65 396.55 384.85 396.3 385.1 396.15 387.05 394.2 389.25 391.1 389.25 391.05 389.55 390.7
Q 390.45 389.1 391.25 387.05
L 391.3 386.65 391.85 384.95 391.85 384.85 391.9 384.6 391.9 384.45 392 384.25 392.45 382.35 394.85 366.6
Q 395.2 361.65 395.2 357.6 395.05 355.3 394.95 353.05
L 400.8 343.95 400.85 343.9
Q 403.35 340.05 402.55 335.5
L 401.2 327.85 404.35 323.85
Q 405.85 322 406.35 319.65 406.9 317.4 406.6 315.1
L 403.3 295.25 421 286
Q 423.8 284.55 425.3 281.75 426.8 279.05 426.5 275.85 426.4 274.7 426.05 273.45
L 425.9 272.85 424.5 269.85 424.35 269.65 424.3 269.6 424.2 269.45 424.1 269.25 415.45 257.8 396.9 236.05 396.85 236 395.6 234.5 395.45 234.35 395.2 233.9
Q 393.8 232.2 392.8 230.5
L 392.75 230.2 392.6 230.15 392.6 230.05 391.8 228.45 391.75 228.4 391.75 228.35 391.05 226.9
Q 390.3 224.75 389.9 223.05 389.4 220.95 389.25 219.05
L 389.2 216.2 389.25 215.9 389.25 214.85
Q 389.4 212.5 389.85 210.5 390.2 208.95 390.75 206.9 391.25 206.25 391.55 205.6
L 392.3 204.35 392.5 203.85
Q 393 202.7 393.15 201.9
L 393.55 199.45 393.55 199.2 393.65 198.85 393.65 197.7 392.1 184.4 389.5 173.4
Q 388.55 170.25 388.05 169.1
L 383 156.95 382.85 156.7
Q 381.9 154.85 380.75 152.75
L 376.1 145.25 370.75 138.3 370.7 138.15
Q 370.4 137.75 369.9 137.75 369.4 137.7 369.05 137.95 368.75 138.3 368.65 138.65 368.5 139.15 368.8 139.55
L 369.8 141.15
M 329.25 95.3
Q 329.3 95.4 329.35 95.3 329.45 95.25 329.35 95.2 323.2 90.35 316.85 86.3 313.55 84.2 310.15 82.4
L 298.05 76.4 289.1 72.9
Q 281.3 70.2 274.15 68.55 266.5 66.8 258.8 65.85
L 243.3 64.6
Q 240.7 64.55 235.45 64.55
L 212 66.6
Q 204.05 67.9 196.6 70
L 180.45 75.55 180.25 75.7 168.3 81.3 167.25 81.9
Q 160.05 85.85 153.65 90.25 147.35 94.55 140.95 99.95
L 129.3 110.8
Q 123.65 116.5 118.65 122.75 113.85 128.65 109.6 135.05
L 109.55 135.15 109.55 135.25 109.05 136 109 136.05 100.65 150.85 96.2 160.9 92.85 170.05 92.85 170.2 92.8 170.2 92.25 172.15 92.15 172.2 91.55 174.45 91.55 174.5 89.2 183.6 89.2 183.65 87.65 191.15
Q 87.2 193.75 86.9 196.2
L 86.5 199.05 86.5 199.2 86.45 199.25 86.45 199.45 85.3 215 85.3 226.75
Q 85.4 229.35 85.55 231.9
L 86.1 238 86.1 238.1 88.25 252.35
Q 89.2 257.15 93.2 259.9 97.25 262.7 102.1 261.75 106.9 260.85 109.65 256.85 112.4 252.7 111.45 247.9
L 111.4 247.25 111.35 247.15 109.2 237.9 109.2 237.75 108.65 235.05 108.65 234.95 108.55 234.1
Q 108.1 232 107.9 229.8 107.6 227.55 107.4 225.3 107.15 223.1 107 220.85 106.8 218.7 106.75 216.4
L 106.7 215 106.65 214.7 106.6 211.9
Q 106.6 209.7 106.6 207.4
L 106.85 199.55 106.9 199.25 106.9 199 107.4 194
Q 107.4 193.85 107.9 189.5
L 108.3 187.4 108.3 187 109.75 179.25 109.75 179.15 110.2 177.25 110.2 177.15 110.55 176.15 110.55 176.05
Q 110.6 175.75 110.7 175.5
L 110.7 175.35 112.9 167.6 116.2 158.4 123.2 143.9
Q 126.5 137.95 130.75 131.95 134.45 126.6 139.7 120.4
L 143.65 115.95 143.9 115.85 148.5 111.05 148.7 110.9 149.8 109.75
Q 155.75 104.1 160.9 100.05 166.35 95.7 172.85 91.6
L 182 86.3 199.35 78.8
Q 206.15 76.4 213.65 74.6
L 223.65 72.7 233.9 71.4 234.2 71.4 235.8 71.2
Q 239.5 71 243.3 70.8
L 258.35 71
Q 265.9 71.5 273.35 72.7 280.9 73.95 288.1 76
L 293.55 77.6 293.75 77.6 293.95 77.8 294.45 77.85 309.45 83.9
Q 313.15 85.7 316.25 87.35 323.05 91 329.25 95.3
M 92.2 172.35
L 92.15 172.5 92.15 172.45 92.2 172.35
M 363.85 40.15
L 354.05 34
Q 353.75 33.7 352.3 32.95
L 329.3 21.2 317.1 16.25 316.8 16.05 294.1 8.9 270.7 3.8 270.55 3.8 270.45 3.7 265.9 3.05
Q 265.5 3 264.5 2.8
L 258.7 2.05
Q 258.45 1.95 257.95 1.9
L 246.3 0.75 245.95 0.75 242.7 0.45
Q 242.45 0.45 242 0.45
L 238.35 0.25
Q 237.8 0.2 236.95 0.2
L 235.55 0.15
Q 235 0.1 234.05 0.1
L 233.4 0 221.4 0.05 197.5 1.7
Q 193.35 2.3 192.6 2.4
L 176.8 5.3 167.15 7.65
Q 161.2 9.1 154.85 11.25
L 144.45 14.85
Q 138.15 17.15 135.3 23.15 132.5 29.15 134.8 35.45 137.05 41.65 143.1 44.6 149.15 47.35 155.4 45.1 156.5 44.7 157.3 44.25
L 160.55 42.6 160.7 42.5 166.1 39.8
Q 172.05 37 176.35 35.3
L 192.85 29.3 202.15 26.6 223.3 22.3 236 20.65 245.35 20 245.7 19.9 268.65 19.8 268.7 19.75 272.15 19.9
Q 272.65 19.95 272.8 19.95
L 298.7 22.65
Q 299.5 22.85 300 22.9 300.8 23.05 301.3 23.1 302.2 23.3 302.55 23.3
L 313.9 25.6 326.5 28.9
Q 328.1 29.4 331.15 30.3
L 335.65 31.75
Q 339.45 33.05 340.05 33.3
L 362.2 42.85
Q 366.15 44.85 372.75 48.45
L 381.7 53.85
Q 381.8 53.95 381.8 53.85 381.85 53.75 381.8 53.75
L 373.6 47.15
Q 368.55 43.4 363.85 40.15
M 488.15 197.55
L 486.35 185.6 482.25 167.2
Q 480.75 161.25 478.65 154.85
L 475 144.35
Q 472.8 138.15 466.75 135.35 460.7 132.55 454.45 134.75 448.2 137.1 445.35 143.1 442.55 149.15 444.85 155.4 445.25 156.4 445.7 157.3
L 450.1 166.1
Q 452.85 172 454.6 176.35
L 458.25 185.8 458.4 186.05 458.4 186.3 460.55 192.6 465.65 212.4
Q 465.75 212.8 465.85 213.55
L 468.35 228.35 469.95 245.75 470.15 268.4 468.3 291.65 465.1 310.2 461 326.6
Q 460.85 327.15 459.5 331.3
L 451.7 352.35 447.05 362.35
Q 444.4 367.6 441.4 372.9
L 436 381.85
Q 435.95 381.95 436.05 381.95 436.1 381.95 436.15 381.95
L 442.65 373.75
Q 446.5 368.65 449.7 364
L 459.65 347.75 468.75 329.45 475.3 312.75 481.1 293.85 485.45 274.65 489.35 244.2 489.55 213.2 488.15 197.55
M 737.2 298.75
L 778.15 298.75 799.85 251.95 852.05 251.95 855.85 298.75 896.35 298.75 889.95 244.65 763.7 244.65 737.2 298.75
M 741.7 168.25
L 702.75 168.25 678.6 296
Q 676.35 307.65 673.45 313.95 670.3 319.95 666.25 322 662.45 324.25 657.95 324.25 655.3 324.25 653.3 324 651.25 323.8 649.25 323.35
L 644.75 352.45
Q 649.25 353.55 654.15 354 658.85 354.45 663.35 354.45 673.85 354.45 683.25 351.1 692.65 347.95 699.4 340.55 705.65 333.65 710.1 322.2 714.6 310.8 717.75 294.25
L 741.7 168.25
M 703.1 119.15
L 703.9 141.7
Q 704.1 148.15 710.6 147.95
L 733.1 147.2
Q 739.6 146.95 739.4 140.5
L 738.6 117.9
Q 738.35 111.45 731.85 111.7
L 709.3 112.5
Q 702.85 112.65 703.1 119.15
M 667.35 83.25
L 652.4 83.25
Q 624.4 83 606.5 96.2 588.35 109.2 583 137.2 580.3 152.6 578.95 168.95 577.85 185.05 575.15 200.25 574.3 206.35 571.15 212.35 568 218.15 560.6 222.45 553.45 226.7 539.8 227.35
L 538 236.75 593.1 236.75
Q 599.25 233.5 604.05 228.7 614.3 218.15 617.7 195.55 619.95 180.35 621.05 168.25 621.7 155.95 623.95 145.25 626.85 131.8 633.8 124.4 640.75 117.05 653.5 116.8
L 660.9 116.8 667.35 83.25
M 875.1 118.85
L 825.4 118.85 770.2 231.45 888.4 231.45 875.1 118.85
M 844.2 148.6
Q 844.85 157.1 845.55 166.7 846.45 176.1 846.9 183.95
L 850.5 222.65 811.1 222.65 829.2 183.95
Q 832.8 175.9 836.4 166.5 840.2 157.1 843.75 148.6
L 844.2 148.6
M 1276.9 345.95
L 1265.25 345.95 1261.9 364.05
Q 1260.55 369.9 1258.1 373.25 1255.4 376.6 1252.25 376.6 1250 376.6 1249.15 375.25 1248.25 374.15 1248.45 372.1 1248.45 371 1248.45 369.65 1248.7 368.3 1248.95 367
L 1252.95 345.95 1241.3 345.95 1237.05 367.85
Q 1236.8 369.9 1236.6 371.65 1236.4 373.45 1236.4 375.05 1236.4 380.6 1239.05 383.3 1241.75 386 1246.45 386 1250 386 1253.6 384.2 1257 382.4 1260.1 378.6
L 1260.35 378.6 1259.4 385.1 1269.75 385.1
Q 1270.15 382.4 1270.65 379.3 1271.05 376.15 1271.95 372.3
L 1276.9 345.95
M 1160.5 345.95
L 1150.2 345.95
Q 1150.2 347.7 1149.95 350.2 1149.55 352.85 1149.3 355.75 1148.85 358.9 1148.2 361.85
L 1143.95 385.1 1155.6 385.1 1158.25 370.55
Q 1158.95 366.5 1160.5 363.4 1161.85 360.25 1164.5 358.25 1167 356.45 1170.6 356.2 1171 356.2 1171.5 356.2 1172.15 356.2 1172.35 356.45
L 1174.8 345.25
Q 1174.15 345.05 1173.7 345.05 1173.05 345.05 1172.6 345.05 1168.55 345.25 1165.2 347.5 1162.05 349.95 1159.85 354
L 1159.6 354
Q 1159.85 351.95 1160.05 349.95 1160.25 347.95 1160.5 345.95
M 1211.1 328.25
L 1199.45 328.25 1188.7 385.1 1200.35 385.1 1203.7 367.2
Q 1204.85 361.15 1207.5 357.8 1210.2 354.45 1213.35 354.45 1215.55 354.45 1216.45 355.55 1217.35 356.9 1217.35 358.7 1217.35 360 1217.15 361.35 1217.15 362.5 1216.9 363.6
L 1212.85 385.1 1224.5 385.1 1228.75 362.7
Q 1229 360.9 1229.2 359.15 1229.45 357.1 1229.45 355.75 1229.45 350.6 1226.75 347.95 1224.05 345.05 1219.6 345.05 1215.55 345.05 1212.4 346.6 1209.3 348.4 1206.85 351.1
L 1206.85 350.85 1211.1 328.25
M 1102.95 357.35
Q 1100.05 362.95 1100.05 369.9 1100.05 374.55 1102.05 378.4 1104.3 381.95 1107.9 383.95 1111.7 386 1116.85 386 1123.6 385.75 1128.9 382.6 1134.3 379.5 1137.2 373.9 1140.35 368.3 1140.35 361.15 1140.35 356.7 1138.3 353.1 1136.3 349.55 1132.5 347.3 1128.9 345.05 1123.6 345.05 1116.6 345.25 1111.25 348.4 1105.85 351.75 1102.95 357.35
M 1117.75 355.35
Q 1119.5 353.75 1122 353.75 1124.45 353.75 1125.8 354.85 1127.15 356 1127.8 357.8 1128.25 359.35 1128.25 361.15 1128.25 363.85 1127.6 366.5 1126.9 369.4 1125.8 371.65 1124.45 374.15 1122.65 375.7 1120.65 377.05 1118.4 377.25 1115.25 377.05 1113.7 375.05 1112.15 373 1112.15 369.65 1111.95 367.2 1112.6 364.5 1113.25 361.85 1114.6 359.35 1115.75 356.9 1117.75 355.35
M 1098.3 341
L 1100.3 331.15 1068.25 331.15 1057.95 385.1 1069.6 385.1 1073.65 363.4 1092.65 363.4 1094.45 353.55 1075.45 353.55 1078.1 341 1098.3 341
M 1049.7 330.25
L 1047.25 352.45 1054.65 352.45 1060.45 330.25 1049.7 330.25
M 1045 330.25
L 1034.25 330.25 1031.75 352.45 1038.95 352.45 1045 330.25
M 1093.35 268.95
Q 1087.3 268.95 1084.85 266.05 1082.4 262.95 1082.4 258 1082.4 254.4 1083.05 250.15 1083.7 246 1084.5 242
L 1046.85 242 1045.45 249.3
Q 1043.9 256.65 1043.2 262.25 1042.55 268.3 1042.55 273.65 1042.55 285.95 1051.05 293.6 1059.3 301.4 1076.75 301.65 1083.25 301.65 1089.55 300.75 1095.8 300.1 1099.6 298.5
L 1104.3 268.5
Q 1101.65 268.95 1098.95 268.95 1096.05 268.95 1093.35 268.95
M 1044.1 168.25
Q 1025.45 167.75 1017.35 167.95 1009.2 168.15 991.7 168.15 974.2 168.1 957.55 177.7 940.9 187.3 929.95 206.1 918.95 224.45 918.75 247.9 918.95 264.95 925.9 276.8 933.1 288.65 945.4 294.95 957.9 301.15 974.3 301.4 985.9 301.4 995.75 299.4 1005.4 297.6 1011.65 294.7
L 1011.4 265.15
Q 1006.3 267.4 1000 268.95 993.75 270.5 985.25 270.5 974.05 270.5 966.9 263.85 959.7 257.1 959.5 243.65 959.5 231.35 964.9 220.4 970.2 209.65 982.5 203.6 994.75 197.55 1004.65 197.45 1014.45 197.35 1014.3 197.1 1017.75 197.7 1038.75 197.35
L 1055.55 197.35 1049.4 228.8 1087.15 228.8 1093.35 197.35 1121.55 197.35 1127.15 168.25 1099.15 168.25 1106.1 131.6 1066.5 140.75 1061.1 168.25 1044.1 168.25
M 1189.15 168.25
L 1150.2 168.25 1125.35 298.75 1164.1 298.75 1189.15 168.25
M 1187.55 140.75
L 1186.8 118.2
Q 1186.6 111.7 1180.1 111.95
L 1157.55 112.75
Q 1151.1 112.95 1151.3 119.4
L 1152.1 141.95
Q 1152.3 148.45 1158.8 148.25
L 1181.3 147.45
Q 1187.8 147.2 1187.55 140.75
M 1493.8 330.25
L 1491.3 352.45 1498.7 352.45 1504.55 330.25 1493.8 330.25
M 1489.1 330.25
L 1478.35 330.25 1475.9 352.45 1483.05 352.45 1489.1 330.25
M 1537.75 262.75
Q 1532.7 257.5 1524.15 257.25 1517.6 257.5 1512.55 260.55 1507.55 263.6 1504.7 268.85 1502.05 274.1 1501.85 280.45 1502.05 288.55 1506.85 293.8 1511.9 298.85 1520.45 299.05 1530.5 298.85 1536.6 292.7 1543 286.55 1543.2 276.7 1543 268 1537.75 262.75
M 1548.25 234.7
Q 1554.4 228.55 1554.6 218.25 1554.4 209.75 1549.35 204.5 1544.1 199.25 1535.6 199.25 1529 199.25 1524 202.3 1518.95 205.6 1516.35 210.85 1513.5 216.1 1513.3 222.25 1513.5 230.55 1518.3 235.55 1523.35 240.8 1532.1 241.05 1541.95 240.8 1548.25 234.7
M 1442.3 351.55
Q 1440.1 354.45 1440.1 358.45 1440.3 362.25 1442.55 364.75 1445 367.2 1448.55 369 1451.25 370.1 1452.4 371.45 1453.5 372.55 1453.5 373.9 1453.5 375.45 1452.15 376.35 1451.05 377.45 1448.35 377.45 1445.45 377.45 1442.75 376.6 1439.85 375.7 1438.05 374.8
L 1435.35 382.85
Q 1437.15 384.2 1440.3 385.1 1443.65 385.75 1447.45 385.75 1452.65 385.75 1456.65 384.45 1460.9 382.6 1463.1 379.7 1465.35 376.6 1465.6 372.1 1465.35 369.4 1464.25 367.4 1462.9 365.4 1460.9 363.85 1458.9 362.5 1456.65 361.35 1454.4 360.25 1453.05 359.15 1451.95 358 1451.95 356.9 1451.95 355.35 1453.3 354.45 1454.65 353.55 1457.1 353.55 1459.55 353.55 1461.55 354 1463.6 354.65 1464.95 355.35
L 1467.6 347.05
Q 1466.25 346.15 1463.6 345.7 1460.9 345.05 1457.55 345.05 1452.4 345.05 1448.55 346.8 1444.55 348.4 1442.3 351.55
M 1408.75 345.95
L 1398.25 345.95
Q 1398 348.6 1397.55 351.75 1396.9 354.85 1396.2 358.7
L 1391.25 385.1 1402.9 385.1 1406.3 367.65
Q 1406.95 363.4 1408.5 360.5 1410.05 357.35 1412.1 355.75 1414.1 354.45 1416.1 354.45 1418.15 354.45 1419.05 355.55 1419.95 356.9 1419.95 358.9 1419.95 360 1419.7 361.15 1419.7 362.25 1419.45 363.4
L 1415.45 385.1 1427.1 385.1 1431.35 362.25
Q 1431.6 360.9 1431.8 358.9 1432 357.1 1432 355.75 1432 350.6 1429.35 347.95 1426.85 345.05 1421.95 345.05 1417.9 345.05 1414.35 346.8 1410.75 348.6 1408.05 352.45
L 1407.85 352.45 1408.75 345.95
M 1354.15 353.75
Q 1350.75 357.8 1349.2 362.5 1347.4 367.4 1347.4 372.3 1347.4 378.6 1350.75 382.2 1353.9 385.75 1359.25 386 1362.85 386 1366.45 383.95 1369.8 382.2 1372.7 377.25
L 1372.95 377.25
Q 1372.7 379.5 1372.45 381.3 1372.25 383.3 1372.25 385.1
L 1383 385.1
Q 1383 382.6 1383.2 379.5 1383.2 376.35 1383.7 373.25 1384.1 370.1 1384.55 367.4
L 1388.85 347.05
Q 1386.1 346.15 1382.75 345.7 1379.2 345.05 1375.6 345.05 1368.45 345.25 1363.05 347.5 1357.7 349.95 1354.15 353.75
M 1363.05 359.35
Q 1364.9 356.9 1367.3 355.35 1369.8 353.75 1372.45 353.75 1373.35 353.75 1374.3 354 1374.95 354 1375.6 354.2
L 1373.8 363.15
Q 1372.95 367.85 1371.35 371 1369.8 373.9 1368 375.25 1365.95 376.6 1364.2 376.6 1361.75 376.6 1360.6 374.8 1359.5 373 1359.5 370.1 1359.5 367.4 1360.4 364.5 1361.5 361.6 1363.05 359.35
M 1314.3 346.15
Q 1312.25 345.05 1309.15 345.05 1305.35 345.05 1301.95 346.8 1298.4 348.6 1295.7 352.45
L 1295.45 352.45 1296.35 345.95 1286.3 345.95
Q 1285.85 348.6 1285.4 351.75 1284.95 354.85 1284.3 358.7
L 1279.35 385.1 1290.55 385.1 1293.7 367.4
Q 1294.6 363.6 1295.95 360.7 1297.5 357.8 1299.25 356 1301.3 354.45 1303.3 354.2 1305.35 354.45 1306.25 355.75 1307.1 357.1 1306.9 359.15 1306.9 360 1306.9 361.15 1306.65 362.25 1306.45 363.6
L 1302.4 385.1 1313.6 385.1 1316.95 367.4
Q 1318.05 361.35 1320.8 357.8 1323.2 354.45 1326.15 354.2 1328.15 354.45 1329.05 355.55 1330.2 356.9 1330.2 358.9 1330.2 360 1329.95 361.35 1329.7 362.5 1329.5 363.85
L 1325.45 385.1 1336.85 385.1 1341.15 362.25
Q 1341.35 360.7 1341.6 358.9 1341.8 356.9 1341.8 355.55 1341.8 350.6 1339.35 347.95 1336.7 345.05 1332.2 345.05 1328.35 345.05 1324.8 346.8 1321.2 348.6 1318.55 352.45 1318.3 350.6 1317.4 349.05 1316.3 347.3 1314.3 346.15
M 1297.7 290.7
Q 1315.4 280.15 1325.25 261.6 1330.8 251.3 1333.4 239.4
L 1292.65 239.4
Q 1290.65 247.2 1286.95 254.2 1282.7 262 1276.45 267.15 1270.4 272.1 1262.35 272.3 1252.25 272.1 1246.9 265.4 1241.55 258.45 1241.55 247.05 1241.45 243.35 1241.85 239.4
L 1201.65 239.4
Q 1201.25 243.45 1201.25 247.7 1201.45 263.85 1208.4 276.15 1215.35 288.2 1227.65 294.95 1240.2 301.4 1257 301.65 1280.05 301.4 1297.7 290.7
M 1370.9 168.25
Q 1369.55 176.75 1368 187.5 1366.2 198.25 1363.75 210.55
L 1347.15 298.75 1385.9 298.75 1396.9 240.75
Q 1399.8 226.45 1404.95 216.4 1410.3 206.55 1416.8 201.4 1423.3 196.25 1429.75 196.25 1436.95 196.45 1439.85 200.5 1442.75 204.75 1442.75 211.65 1442.75 215.5 1442.3 219.3 1441.85 222.85 1441.4 226.45
L 1427.55 298.75 1466.25 298.75 1481.05 222.85
Q 1481.7 217.95 1482.4 211.65 1483.05 205.4 1483.05 200.7 1482.85 183.95 1474.35 174.75 1465.8 165.35 1449.5 165.35 1436.25 165.35 1424.4 171.2 1412.55 177.25 1403.15 189.95
L 1402.7 189.95 1405.15 168.25 1370.9 168.25
M 1329.05 192
Q 1322.35 179.9 1309.8 172.75 1297.5 165.35 1279.8 165.35 1256.3 165.6 1238.6 176.75 1220.9 187.75 1211.3 206.35 1206.35 215.75 1203.8 226.2
L 1244.35 226.2
Q 1246.3 219.25 1249.6 213 1253.85 204.95 1260.1 199.85 1266.4 194.45 1274.9 194.45 1282.5 194.45 1286.95 198.25 1291.7 201.85 1293.7 207.4 1295.45 213 1295.45 219.3 1295.45 222.7 1295.1 226.2
L 1335.25 226.2
Q 1335.5 222.6 1335.55 218.85 1335.55 203.85 1329.05 192
M 1685.2 340.3
Q 1680.45 356.7 1673.3 373.7 1666.15 390.9 1658.35 406.8
L 1682.5 404.55
Q 1693.25 390.7 1703.3 373.45 1713.4 356.2 1721.65 337.9
L 1685.2 340.3
M 1629.45 287.35
Q 1630.35 281.55 1633.45 275.5 1636.6 269.65 1644 265.45 1651.35 260.95 1664.8 260.3
L 1666.8 249.95 1613.95 249.95
Q 1606.35 253.4 1600.8 258.95 1590.3 269.45 1586.9 292.05 1584.9 307.25 1583.8 319.35 1582.9 331.65 1581.1 342.4 1578.2 355.85 1571 363.2 1563.85 370.6 1551.1 370.8
L 1543.7 370.8 1537.2 404.4 1552.2 404.4
Q 1580.65 404.6 1598.35 391.4 1616.25 378.45 1621.6 350.45 1624.5 335 1625.85 318.7 1627 302.6 1629.45 287.35
M 1728.6 268.75
Q 1723.2 263.35 1714.75 263.35 1707.8 263.35 1702.65 266.5 1697.7 269.85 1694.8 275.25 1691.9 280.6 1691.7 286.85 1691.9 295.35 1697.05 300.5 1702.2 305.9 1710.9 306.1 1721 305.9 1727.3 299.6 1733.75 293.35 1733.95 282.85 1733.75 274.1 1728.6 268.75
M 1647.8 192.7
Q 1650.7 182.85 1654.5 171.9 1658.1 160.7 1661 149.3 1663.5 138.1 1663.7 127.6 1663.25 104.35 1649.15 94.7 1634.8 84.85 1610.4 85.1
L 1598.8 85.1 1592.3 118.65 1599.7 118.65
Q 1609.3 118.65 1614 123.55 1618.9 128.3 1618.9 137 1618.7 144.4 1616.45 154 1614 163.6 1610.85 174.15 1607.75 185.1 1604.85 195.6 1602.1 205.9 1601.95 214.65 1602.1 226.5 1609.3 234.1 1610.6 235.5 1612.1 236.75
L 1669.3 236.75 1670.65 229.6
Q 1657.4 229.2 1651.15 223.8 1644.7 218.65 1644.7 209.7 1644.9 202.35 1647.8 192.7 Z"/>
</g>
</defs>

<g transform="matrix( 1, 0, 0, 1, 0,0) ">
<use xlink:href="#Layer0_0_FILL"/>
</g>
</svg>
