
<svg xmlns="http://www.w3.org/2000/svg" version="1.1" xmlns:xlink="http://www.w3.org/1999/xlink" preserveAspectRatio="none" x="0px" y="0px" width="36px" height="36px" viewBox="0 0 36 36">
<defs>
<g id="Layer0_0_FILL">
<path fill="#FFFFFF" stroke="none" d="
M 11.85 30.85
L 10.8 30.4
Q 10.55 30.25 10.15 30.05
L 9.65 29.7 9.6 29.7 10.15 30.15
Q 10.45 30.4 10.7 30.55
L 12.5 31.55 12.55 31.6 16.2 32.75 18.15 33 19.9 33 22.75 32.55
Q 23.2 32.45 23.55 32.35
L 24.15 32.1
Q 24.55 31.95 24.75 31.6 24.9 31.25 24.75 30.85 24.6 30.45 24.25 30.3 23.9 30.1 23.5 30.25 23.45 30.25 23.4 30.3
L 22.85 30.55
Q 22.55 30.75 22.2 30.85
L 20.35 31.45 18.05 31.8 16.55 31.8
Q 16.45 31.8 16.4 31.8
L 16.3 31.8 14.55 31.6 14.45 31.6 14.05 31.5 14 31.5 11.85 30.85
M 12.65 23
L 12.4 22.9 11.65 22.3 11.55 22.25 11.25 21.95
Q 11 21.75 10.8 21.55 10.95 21.8 11.15 22.05
L 11.2 22.15 11.3 22.25 11.3 22.3 12.2 23.3 12.15 23.65 11.7 25.1 11.65 25.2
Q 11.65 25.25 11.6 25.4
L 11.1 26.7
Q 11 26.95 11.1 27.2 11.2 27.45 11.45 27.55 11.7 27.65 11.95 27.55 12.2 27.45 12.3 27.2 12.35 27.15 12.35 27.05
L 12.75 23.75 12.75 23.2
Q 12.75 23.1 12.65 23
M 4.95 11.55
Q 4.75 11.85 4.7 12 4.5 12.4 4.45 12.55
L 4.15 13.15
Q 4.05 13.45 3.95 13.75 3.85 13.95 3.7 14.4 3.65 14.65 3.55 15.05 3.5 15.25 3.35 15.75
L 3.3 16.05 3.3 16.1 3.25 16.45
Q 3.2 16.75 3.1 17.15
L 3 19.3
Q 3 19.6 3 19.95
L 3.25 21.8
Q 3.35 22.25 3.45 22.75
L 3.7 23.6 3.7 23.65 3.9 24.2
Q 4.05 24.55 4.4 24.75 4.8 24.9 5.2 24.75 5.55 24.6 5.75 24.25 5.9 23.85 5.75 23.5
L 5.15 22.2
Q 5 21.85 4.85 21.4
L 4.35 19.2 4.2 17.25
Q 4.2 16.85 4.2 16.55
L 4.25 15.9
Q 4.25 15.65 4.3 15.2 4.35 14.85 4.4 14.55 4.45 14.3 4.55 13.9
L 4.7 13.3 5.55 11 6.3 9.65 5.9 10.15
Q 5.75 10.3 5.7 10.4
L 4.95 11.55
M 25.55 15.95
L 25.55 15.75 25.35 14.4
Q 25.3 14.2 25.25 14.15
L 24.6 12.85 24.3 12.45
Q 24.3 12.4 24.25 12.4
L 24.2 12.45 24.2 12.55 24.25 12.6 24.75 13.6 25.05 14.9 25.1 15.85 25.05 15.9 25 16 24.95 16 24.95 16.05
Q 24.9 16.15 24.9 16.3 24.85 16.45 24.8 16.6 24.8 16.75 24.8 16.9 24.8 17.05 24.8 17.2 24.85 17.35 24.9 17.5 24.95 17.65 25 17.8 25.05 17.9 25.15 18.05
L 25.25 18.2 25.3 18.2 26.65 20 25.35 20.65
Q 25.3 20.65 25.3 20.7 25.3 20.75 25.3 20.8
L 25.5 22.25 25.2 22.65
Q 25.15 22.7 25.15 22.75
L 25.3 23.4 24.85 24.05 24.85 24.1
Q 24.85 24.35 24.85 24.55 24.85 24.75 24.85 24.95 24.8 25.4 24.75 25.8
L 24.7 25.85 24.7 25.9
Q 24.7 25.95 24.65 26 24.65 26.05 24.6 26.05
L 24.5 26.15 24.4 26.15 22.3 25.9 19.15 24.9 19.05 24.8
Q 18.9 24.8 18.85 24.75 18.75 24.7 18.65 24.6 18.55 24.55 18.5 24.5 18.3 24.4 18.15 24.25 18 24.05 17.9 23.9 17.8 23.75 17.7 23.55 17.6 23.4 17.5 23.15 17.45 23 17.4 22.75 17.4 22.55 17.35 22.35
L 17.15 19.75
Q 17.15 19.7 17.1 19.7
L 17.05 19.7
Q 17 19.7 17 19.75
L 17 22.6
Q 17 22.7 17 22.85 17.05 23.1 17.1 23.3
L 17.15 23.55
Q 17.2 23.65 17.25 23.8
L 17.45 24.2 17.65 24.4
Q 17.7 24.55 17.8 24.6
L 17.95 24.8
Q 18.05 24.9 18.15 24.95 18.25 25.05 18.35 25.1 18.4 25.15 18.55 25.25 18.65 25.3 18.75 25.35
L 18.8 25.4 18.9 25.45 18.95 25.45 20.9 26.25 22.15 26.6 24.3 26.9
Q 24.4 26.9 24.5 26.9 24.65 26.9 24.75 26.85 24.9 26.8 25 26.75
L 25.2 26.55 25.3 26.4 25.3 26.35 25.35 26.35
Q 25.4 26.25 25.45 26.15
L 25.45 26 25.65 25
Q 25.65 24.7 25.65 24.55
L 25.65 24.25 25.95 23.8
Q 26.1 23.55 26.05 23.3
L 25.95 22.9 26.15 22.7
Q 26.25 22.55 26.25 22.45 26.3 22.3 26.25 22.2
L 26.1 21.1 27.05 20.6
Q 27.2 20.5 27.3 20.35 27.4 20.2 27.4 20.05 27.35 19.95 27.35 19.9
L 27.35 19.85 27.25 19.65 25.65 17.75 25.65 17.7
Q 25.55 17.65 25.5 17.55
L 25.5 17.5 25.4 17.35
Q 25.4 17.25 25.35 17.1 25.3 17 25.3 16.9
L 25.3 16.65
Q 25.3 16.55 25.35 16.45 25.35 16.35 25.4 16.25 25.45 16.2 25.45 16.15
L 25.5 16.05
Q 25.55 16 25.55 15.95
M 22 10.1
Q 21.7 9.8 21.35 9.6 21.1 9.45 21 9.4
L 19.8 8.85
Q 19.4 8.7 19 8.65 18.6 8.5 18.15 8.45
L 15.6 8.5
Q 15.1 8.6 14.75 8.7
L 13.15 9.3 13.15 9.35
Q 12.75 9.55 12.35 9.8 12 10.05 11.65 10.35
L 11.05 10.95
Q 10.7 11.25 10.45 11.6 10.15 11.95 9.95 12.3
L 9.9 12.35 9.2 13.7 9 14.2 8.75 15.35
Q 8.7 15.5 8.7 15.65
L 8.65 15.8 8.65 17.95 8.8 18.75
Q 8.8 19 9.05 19.15 9.25 19.3 9.55 19.25 9.8 19.2 9.95 19 10.1 18.75 10.05 18.5
L 10.05 18.45 9.95 17.95 9.9 17.8 9.9 17.75
Q 9.85 17.6 9.85 17.5 9.85 17.35 9.85 17.25 9.8 17.1 9.8 17 9.8 16.9 9.8 16.75
L 9.85 15.3 9.9 15.15 9.95 14.7 10.3 13.55 10.7 12.75
Q 10.9 12.4 11.1 12.1 11.3 11.8 11.6 11.45
L 12.15 10.9
Q 12.5 10.55 12.75 10.35 13.1 10.1 13.45 9.9
L 13.95 9.6 14.9 9.2
Q 15.3 9.05 15.65 8.95
L 16.8 8.75 18.15 8.75
Q 18.5 8.8 18.95 8.85 19.35 8.9 19.75 9
L 20.05 9.1 20.05 9.15 20.1 9.15 20.95 9.45
Q 21.1 9.55 21.3 9.65 21.7 9.85 22 10.1
M 25.3 5.45
L 24.7 5.1
Q 24.7 5.05 24.6 5
L 22.45 4 22.4 4 19.6 3.25 19.55 3.25 19.3 3.2 19.2 3.2 17.35 3 15.1 3.1 13.25 3.45
Q 12.9 3.55 12.5 3.7
L 11.85 3.9
Q 11.45 4.05 11.3 4.4 11.1 4.8 11.25 5.2 11.4 5.55 11.75 5.75 12.15 5.9 12.5 5.75 12.6 5.75 12.65 5.7
L 13.2 5.45
Q 13.55 5.25 13.8 5.15
L 14.8 4.8 16.7 4.35 18.05 4.25 18.05 4.2 21.3 4.4
Q 21.35 4.4 21.4 4.4
L 23 4.75 25.2 5.65
Q 25.55 5.8 25.85 6
L 26.4 6.3 25.9 5.9
Q 25.55 5.65 25.3 5.45
M 31.6 11.3
Q 31.25 11.1 30.85 11.25 30.45 11.4 30.3 11.75 30.1 12.15 30.25 12.5 30.3 12.6 30.3 12.65
L 30.6 13.15
Q 30.75 13.55 30.85 13.8
L 31.1 14.4 31.55 16 31.8 18.05 31.8 19.45 31.5 22 31.25 23 30.4 25.2
Q 30.25 25.5 30.05 25.85
L 29.7 26.4 29.75 26.4 30.15 25.9
Q 30.35 25.6 30.55 25.3
L 31.7 23.2 32.5 21 33 17.95 33 16.05 32.55 13.25
Q 32.45 12.85 32.35 12.5
L 32.1 11.85
Q 31.95 11.45 31.6 11.3 Z"/>
</g>
</defs>

<g transform="matrix( 1, 0, 0, 1, 0,0) ">
<use xlink:href="#Layer0_0_FILL"/>
</g>
</svg>
